<svg width="57" height="51" viewBox="0 0 57 51" version="1.1" xmlns="http://www.w3.org/2000/svg" xmlns:xlink="http://www.w3.org/1999/xlink">
<title>Group 2</title>
<desc>Created using Figma</desc>
<g id="Canvas" transform="translate(257 300)">
<g id="Group 2">
<g id="Vector 12">
<use xlink:href="#path0_fill" transform="translate(-234.864 -288.887)" fill="#FFFFFF"/>
<use xlink:href="#path1_stroke" transform="translate(-234.864 -288.887)"/>
</g>
<g id="Vector 11">
<use xlink:href="#path2_fill" transform="translate(-230 -296)" fill="#C4C4C4"/>
<use xlink:href="#path3_stroke" transform="translate(-230 -296)"/>
</g>
<g id="Vector 13">
<use xlink:href="#path4_stroke" transform="translate(-220.96 -298.297)"/>
</g>
<g id="Vector 14">
<use xlink:href="#path5_stroke" transform="translate(-226.099 -298.732)"/>
</g>
<g id="Vector 15">
<use xlink:href="#path6_stroke" transform="translate(-225.756 -297.697)"/>
</g>
<g id="Vector 16">
<use xlink:href="#path7_stroke" transform="translate(-222.502 -292.729)"/>
</g>
<g id="Vector 17">
<use xlink:href="#path8_stroke" transform="translate(-225.657 -292.901)"/>
</g>
<g id="Vector 18">
<use xlink:href="#path9_stroke" transform="translate(-226.955 -286.221)"/>
</g>
<g id="Group">
<g id="Vector 9">
<use xlink:href="#path10_fill" transform="matrix(0.817516 -0.575905 0.575905 0.817516 -256.899 -282.748)" fill="#C48E5E"/>
</g>
<g id="Ellipse">
<use xlink:href="#path11_fill" transform="matrix(0.817516 -0.575905 0.575905 0.817516 -232.316 -273.872)"/>
<mask id="mask0_outline_ins">
<use xlink:href="#path11_fill" fill="white" transform="matrix(0.817516 -0.575905 0.575905 0.817516 -232.316 -273.872)"/>
</mask>
<g mask="url(#mask0_outline_ins)">
<use xlink:href="#path12_stroke_2x" transform="matrix(0.817516 -0.575905 0.575905 0.817516 -232.316 -273.872)"/>
</g>
</g>
</g>
<g id="Vector 19">
<use xlink:href="#path13_stroke" transform="translate(-226.27 -279.198)"/>
</g>
<g id="Vector 20">
<use xlink:href="#path14_stroke" transform="translate(-249.074 -280.054)"/>
</g>
<g id="Vector 21">
<use xlink:href="#path15_stroke" transform="translate(-234.321 -260.699)"/>
</g>
<g id="Vector 22">
<use xlink:href="#path16_stroke" transform="translate(-209.313 -260.014)"/>
</g>
<g id="Line">
<use xlink:href="#path17_stroke" transform="matrix(0.941742 0.336336 -0.336336 0.941742 -250 -280)"/>
</g>
<g id="Line">
<use xlink:href="#path17_stroke" transform="matrix(0.941742 0.336336 -0.336336 0.941742 -250 -281)"/>
</g>
<g id="Line">
<use xlink:href="#path17_stroke" transform="matrix(0.941742 0.336336 -0.336336 0.941742 -248 -281)"/>
</g>
<g id="Line">
<use xlink:href="#path17_stroke" transform="matrix(0.941742 0.336336 -0.336336 0.941742 -251 -281)"/>
</g>
</g>
</g>
<defs>
<path id="path0_fill" d="M 10.4874 1.29591C 11.3354 1.29591 12.1548 1.2856 12.9871 1.40113C 13.6218 -0.176543 16.7852 -0.553662 17.5387 0.953337C 17.6163 1.10849 17.6285 1.32723 17.6141 1.52575C 18.2504 0.32475 21.3817 0.117431 22.3157 0.0969016C 23.5832 0.0690449 24.455 0.676202 25.475 1.40059C 26.4482 2.09168 28.284 3.14928 28.463 4.47424C 28.4773 4.5798 29.6105 4.70059 29.938 4.81681C 31.8178 5.48383 33.3599 6.42973 33.4208 8.59464C 33.4539 9.76812 33.6279 11.216 33.0688 12.2963C 32.5955 13.2107 31.6322 14.719 30.6232 15.1226C 30.251 15.2714 29.7189 15.1702 29.3195 15.1702C 29.1329 15.1702 29.6492 15.3428 29.7572 15.4652C 30.8131 16.6618 30.4009 19.4322 30.3377 20.9178C 30.281 22.2486 29.9172 23.2933 28.8817 24.1722C 28.3233 24.6463 27.5144 25.4835 26.7597 25.5996C 26.4458 25.6479 26.0279 25.663 25.6907 25.6084C 25.7015 25.6176 25.7121 25.6274 25.7224 25.6377C 26.2833 26.1986 26.4859 27.5692 26.3981 28.3593C 26.2284 29.886 22.8922 29.7296 21.8209 29.7296C 20.6999 29.7296 19.3717 29.8207 18.3571 29.2442C 18.0703 29.0813 16.8005 27.3882 16.6442 27.4457C 16.2178 27.6028 15.7864 28.2777 15.4072 28.5305C 14.5803 29.0818 13.8576 29.2157 12.895 29.2157C 11.0167 29.2157 9.81292 29.1959 8.36536 27.7122C 8.08904 27.4289 7.44638 25.5369 7.29958 25.495C 7.22885 25.4748 6.73922 26.0402 6.57636 26.0945C 5.35537 26.5015 3.65707 25.7317 2.5987 25.3142C 0.979895 24.6755 1.91326 22.5307 2.56064 21.4317C 2.95407 20.7637 3.05667 20.0603 3.88335 19.8806C 4.67367 19.7087 4.1393 19.7615 3.56933 19.4333C 2.75101 18.9622 1.74052 18.4936 1.00002 17.9012C 0.399754 17.421 0.313439 16.353 0.13407 15.6555C -0.212364 14.3082 0.127526 13.2824 0.980989 12.2583C 1.30897 11.8647 1.79231 11.4562 2.25613 11.2306C 2.51816 11.1031 3.19409 11.1614 2.76999 11.0402C 1.96642 10.8106 2.03137 9.50683 2.10387 8.90867C 2.35063 6.87287 3.88962 5.65598 5.56767 4.74068C 6.90263 4.01253 8.06667 3.86522 9.54534 3.86522C 10.4471 3.86522 9.96404 3.45991 9.96404 2.76137C 9.96404 2.26685 9.79112 1.29591 10.4874 1.29591Z"/>
<path id="path1_stroke" d="M 13.2962 1.95837C 13.5675 2.01004 13.8293 1.83202 13.881 1.56075C 13.9326 1.28949 13.7546 1.0277 13.4833 0.976028L 13.2962 1.95837ZM 5.56767 4.74068L 5.32825 4.30173L 5.32825 4.30173L 5.56767 4.74068ZM 2.10387 8.90867L 2.60024 8.96883L 2.10387 8.90867ZM 2.76999 11.0402L 2.90735 10.5595L 2.76999 11.0402ZM 2.25613 11.2306L 2.47486 11.6802L 2.47486 11.6802L 2.25613 11.2306ZM 0.980989 12.2583L 1.3651 12.5784L 1.3651 12.5784L 0.980989 12.2583ZM 0.13407 15.6555L -0.350176 15.78L 0.13407 15.6555ZM 1.00002 17.9012L 1.31237 17.5108L 1.31237 17.5108L 1.00002 17.9012ZM 3.56933 19.4333L 3.31984 19.8666L 3.56933 19.4333ZM 3.88335 19.8806L 3.77714 19.392L 3.88335 19.8806ZM 2.56064 21.4317L 2.12982 21.1779L 2.12982 21.1779L 2.56064 21.4317ZM 2.5987 25.3142L 2.78219 24.849L 2.78219 24.849L 2.5987 25.3142ZM 6.57636 26.0945L 6.73448 26.5688L 6.73448 26.5688L 6.57636 26.0945ZM 7.29958 25.495L 7.16222 25.9757L 7.29958 25.495ZM 8.36536 27.7122L 8.72325 27.363L 8.72325 27.363L 8.36536 27.7122ZM 16.6442 27.4457L 16.8171 27.9149L 16.6442 27.4457ZM 18.3571 29.2442L 18.1101 29.679L 18.1101 29.679L 18.3571 29.2442ZM 26.3981 28.3593L 26.895 28.4145L 26.3981 28.3593ZM 25.5512 25.5806L 25.4334 26.0665L 25.5512 25.5806ZM 26.7597 25.5996L 26.8357 26.0938L 26.7597 25.5996ZM 28.8817 24.1722L 29.2053 24.5534L 29.2053 24.5534L 28.8817 24.1722ZM 30.3377 20.9178L 30.8372 20.939L 30.3377 20.9178ZM 29.7572 15.4652L 29.3823 15.796L 29.7572 15.4652ZM 30.6232 15.1226L 30.4375 14.6583L 30.6232 15.1226ZM 33.0688 12.2963L 32.6247 12.0665L 33.0688 12.2963ZM 33.4208 8.59464L 32.921 8.60872L 33.4208 8.59464ZM 29.938 4.81681L 30.1052 4.3456L 30.1052 4.3456L 29.938 4.81681ZM 28.463 4.47424L 28.9585 4.40728L 28.463 4.47424ZM 25.475 1.40059L 25.7645 0.992922L 25.475 1.40059ZM 22.3157 0.0969016L 22.3048 -0.402978L 22.3157 0.0969016ZM 12.3759 1.98106C 12.3759 2.2572 12.5998 2.48106 12.8759 2.48106C 13.1521 2.48106 13.3759 2.2572 13.3759 1.98106L 12.3759 1.98106ZM 13.4833 0.976028C 12.4552 0.780189 11.4575 0.795911 10.4874 0.795911L 10.4874 1.79591C 11.486 1.79591 12.38 1.78385 13.2962 1.95837L 13.4833 0.976028ZM 10.4874 0.795911C 10.1806 0.795911 9.91325 0.911087 9.72665 1.13661C 9.55994 1.3381 9.4972 1.58093 9.46971 1.77201C 9.44133 1.96932 9.44262 2.17288 9.44818 2.34036C 9.45453 2.53154 9.46404 2.64573 9.46404 2.76137L 10.464 2.76137C 10.464 2.62974 10.4519 2.43712 10.4476 2.30717C 10.4425 2.15351 10.4441 2.02162 10.4595 1.91438C 10.4758 1.80091 10.5004 1.7701 10.4971 1.77408C 10.4739 1.8021 10.4461 1.79591 10.4874 1.79591L 10.4874 0.795911ZM 9.46404 2.76137C 9.46404 2.9926 9.50418 3.19228 9.53805 3.34016C 9.55751 3.42516 9.56839 3.46641 9.58053 3.52282C 9.58556 3.54618 9.58883 3.5636 9.59091 3.577C 9.59191 3.5835 9.59253 3.58833 9.59289 3.59175C 9.59325 3.59517 9.59332 3.59668 9.59331 3.59655C 9.59331 3.59643 9.59321 3.59414 9.59337 3.59003C 9.59353 3.58591 9.59397 3.5795 9.59515 3.57121C 9.59754 3.55446 9.60308 3.52939 9.61587 3.5001C 9.6453 3.43267 9.69354 3.38647 9.73396 3.36222C 9.76515 3.34351 9.77608 3.3471 9.7383 3.35353C 9.7026 3.35961 9.64181 3.36522 9.54534 3.36522L 9.54534 4.36522C 9.77843 4.36522 10.0401 4.34471 10.2484 4.21972C 10.3704 4.14656 10.4715 4.03966 10.5323 3.90017C 10.5891 3.77018 10.5963 3.64519 10.5924 3.55394C 10.5858 3.3993 10.5342 3.21013 10.5128 3.11693C 10.4843 2.99234 10.464 2.8794 10.464 2.76137L 9.46404 2.76137ZM 9.54534 3.36522C 8.02351 3.36522 6.76547 3.5178 5.32825 4.30173L 5.8071 5.17963C 7.03979 4.50726 8.10983 4.36522 9.54534 4.36522L 9.54534 3.36522ZM 5.32825 4.30173C 3.62331 5.2317 1.88538 6.556 1.6075 8.8485L 2.60024 8.96883C 2.81589 7.18973 4.15593 6.08027 5.8071 5.17963L 5.32825 4.30173ZM 1.6075 8.8485C 1.56945 9.16243 1.52793 9.69621 1.61589 10.1989C 1.69974 10.6781 1.94176 11.3236 2.63263 11.521L 2.90735 10.5595C 2.79465 10.5273 2.66735 10.4061 2.60092 10.0265C 2.53858 9.67028 2.56579 9.25307 2.60024 8.96883L 1.6075 8.8485ZM 2.63263 11.521C 2.68274 11.5353 2.68441 11.5384 2.666 11.5297C 2.66473 11.5291 2.60457 11.5027 2.54391 11.4403C 2.5111 11.4065 2.4504 11.3341 2.42165 11.221C 2.38853 11.0907 2.41131 10.9592 2.47235 10.8533C 2.52482 10.7624 2.59246 10.7121 2.62637 10.6898C 2.6634 10.6656 2.6952 10.6522 2.71129 10.646C 2.72907 10.6391 2.74288 10.6352 2.74988 10.6333C 2.75743 10.6313 2.76248 10.6303 2.76402 10.63C 2.76464 10.6298 2.75279 10.6319 2.71523 10.6361C 2.65613 10.6426 2.53812 10.6534 2.43082 10.6699C 2.32999 10.6853 2.17493 10.714 2.03739 10.7809L 2.47486 11.6802C 2.46834 11.6833 2.49603 11.6715 2.58238 11.6583C 2.66226 11.6461 2.73586 11.6399 2.82549 11.63C 2.86229 11.6259 2.91408 11.6198 2.9617 11.6102C 2.98415 11.6057 3.02573 11.5966 3.07173 11.5788C 3.09504 11.5698 3.13285 11.5535 3.17455 11.5262C 3.21314 11.5009 3.28415 11.4473 3.33858 11.353C 3.40157 11.2438 3.4249 11.1087 3.39083 10.9746C 3.36112 10.8578 3.29796 10.7814 3.2611 10.7434C 3.19234 10.6727 3.1177 10.6371 3.09484 10.6263C 3.03324 10.597 2.96326 10.5755 2.90735 10.5595L 2.63263 11.521ZM 2.03739 10.7809C 1.49796 11.0434 0.960843 11.5014 0.596879 11.9382L 1.3651 12.5784C 1.6571 12.228 2.08666 11.869 2.47486 11.6802L 2.03739 10.7809ZM 0.596879 11.9382C 0.139086 12.4875 -0.202909 13.0635 -0.375349 13.7061C -0.548938 14.3531 -0.541847 15.0346 -0.350176 15.78L 0.618317 15.531C 0.463553 14.9291 0.467372 14.4241 0.590485 13.9653C 0.714747 13.5022 0.969429 13.0532 1.3651 12.5784L 0.596879 11.9382ZM -0.350176 15.78C -0.309122 15.9396 -0.273339 16.1208 -0.228934 16.3347C -0.186011 16.5415 -0.136463 16.7713 -0.0713432 16.9979C 0.0545534 17.4361 0.261619 17.9508 0.687674 18.2917L 1.31237 17.5108C 1.13816 17.3714 1.00193 17.1121 0.88976 16.7218C 0.835846 16.5341 0.792668 16.3361 0.750201 16.1315C 0.709216 15.934 0.666946 15.7201 0.618317 15.531L -0.350176 15.78ZM 0.687674 18.2917C 1.46734 18.9154 2.56101 19.4297 3.31984 19.8666L 3.81881 19C 2.94101 18.4946 2.01369 18.0719 1.31237 17.5108L 0.687674 18.2917ZM 3.31984 19.8666C 3.49568 19.9679 3.66428 20.0372 3.79555 20.0861C 3.85989 20.11 3.92022 20.1308 3.96128 20.1453C 3.98318 20.153 3.99922 20.1588 4.01173 20.1635C 4.02493 20.1685 4.02813 20.1701 4.02562 20.1689C 4.02399 20.1682 4.01825 20.1655 4.00986 20.1608C 4.00194 20.1563 3.98695 20.1475 3.96859 20.1338C 3.94907 20.1192 3.83737 20.0364 3.79624 19.8702C 3.77291 19.776 3.77868 19.6783 3.8105 19.5896C 3.84006 19.5071 3.88532 19.4508 3.9174 19.4179C 3.97516 19.3586 4.03111 19.3337 4.0363 19.3313C 4.05488 19.3226 4.05168 19.3266 3.99384 19.3417C 3.94423 19.3546 3.87432 19.3708 3.77714 19.392L 3.98957 20.3691C 4.08997 20.3473 4.17623 20.3276 4.24645 20.3092C 4.30843 20.2931 4.38869 20.2704 4.45941 20.2374C 4.49067 20.2228 4.56485 20.1863 4.63364 20.1157C 4.7145 20.0327 4.82338 19.8579 4.76693 19.6299C 4.72306 19.4527 4.60205 19.3588 4.56728 19.3328C 4.51914 19.2968 4.47265 19.274 4.44728 19.2622C 4.39511 19.2379 4.33472 19.2166 4.29381 19.2022C 4.24437 19.1847 4.19798 19.1688 4.14442 19.1489C 4.0399 19.11 3.92796 19.0628 3.81881 19L 3.31984 19.8666ZM 3.77714 19.392C 3.20246 19.5169 2.86804 19.8402 2.6369 20.2058C 2.52967 20.3755 2.44216 20.5579 2.36603 20.7169C 2.28611 20.8839 2.21526 21.0328 2.12982 21.1779L 2.99145 21.6854C 3.10273 21.4965 3.19225 21.307 3.26805 21.1486C 3.34764 20.9823 3.41122 20.8524 3.48216 20.7402C 3.60734 20.5422 3.73756 20.4239 3.98957 20.3691L 3.77714 19.392ZM 2.12982 21.1779C 1.79599 21.7446 1.36149 22.6224 1.23527 23.4721C 1.17168 23.9003 1.17965 24.3642 1.35813 24.7871C 1.54404 25.2275 1.89443 25.5738 2.41521 25.7793L 2.78219 24.849C 2.49356 24.7352 2.35358 24.5739 2.27943 24.3982C 2.19786 24.205 2.17611 23.9443 2.22442 23.619C 2.32203 22.9619 2.6779 22.2177 2.99145 21.6854L 2.12982 21.1779ZM 2.41521 25.7793C 2.92462 25.9802 3.65105 26.2927 4.39482 26.4958C 5.13087 26.6969 5.98006 26.8203 6.73448 26.5688L 6.41825 25.6201C 5.95168 25.7756 5.34121 25.7177 4.65827 25.5312C 3.98306 25.3468 3.33114 25.0656 2.78219 24.849L 2.41521 25.7793ZM 6.73448 26.5688C 6.82675 26.538 6.90097 26.4882 6.94026 26.4603C 6.98763 26.4268 7.03382 26.3889 7.07478 26.3536C 7.15645 26.2831 7.24464 26.1987 7.31888 26.1274C 7.3991 26.0503 7.4614 25.9903 7.5086 25.949C 7.53345 25.9273 7.53932 25.924 7.53199 25.9289C 7.5294 25.9306 7.50653 25.9461 7.46942 25.9611C 7.45211 25.9682 7.32512 26.0223 7.16222 25.9757L 7.43694 25.0142C 7.26519 24.9651 7.12609 25.0213 7.09376 25.0344C 7.04163 25.0555 7.00083 25.0811 6.97776 25.0965C 6.92948 25.1287 6.88422 25.1666 6.85068 25.1959C 6.78109 25.2567 6.69754 25.3376 6.62616 25.4062C 6.54879 25.4805 6.47962 25.5463 6.42147 25.5965C 6.39252 25.6215 6.37319 25.6366 6.36233 25.6442C 6.3434 25.6577 6.36669 25.6373 6.41825 25.6201L 6.73448 26.5688ZM 7.16222 25.9757C 7.06692 25.9485 7.00721 25.8994 6.98628 25.8812C 6.96067 25.8588 6.94541 25.84 6.94055 25.8338C 6.93088 25.8216 6.93116 25.8196 6.94203 25.8387C 6.96236 25.8742 6.99289 25.9356 7.0339 26.0259C 7.11488 26.2043 7.21361 26.4438 7.32221 26.705C 7.42844 26.9605 7.54312 27.2344 7.6496 27.4631C 7.70282 27.5775 7.75718 27.6875 7.81025 27.7821C 7.85762 27.8664 7.92428 27.9761 8.00747 28.0613L 8.72325 27.363C 8.73736 27.3775 8.72349 27.366 8.68225 27.2926C 8.64672 27.2293 8.60439 27.1447 8.55621 27.0412C 8.45989 26.8342 8.35292 26.5793 8.24559 26.3211C 8.14064 26.0687 8.0339 25.8096 7.94446 25.6126C 7.90025 25.5152 7.85434 25.4197 7.81035 25.3427C 7.78905 25.3054 7.7602 25.2582 7.72485 25.2135C 7.70716 25.1911 7.67992 25.1592 7.64325 25.1272C 7.61127 25.0994 7.54141 25.044 7.43694 25.0142L 7.16222 25.9757ZM 8.00747 28.0613C 8.7852 28.8585 9.52465 29.2869 10.3403 29.5036C 11.1312 29.7137 11.9693 29.7157 12.895 29.7157L 12.895 28.7157C 11.9423 28.7157 11.2394 28.7078 10.597 28.5371C 9.97929 28.373 9.39309 28.0496 8.72325 27.363L 8.00747 28.0613ZM 12.895 29.7157C 13.9219 29.7157 14.7509 29.569 15.6845 28.9466L 15.1298 28.1145C 14.4097 28.5946 13.7934 28.7157 12.895 28.7157L 12.895 29.7157ZM 15.6845 28.9466C 15.9353 28.7794 16.1943 28.4824 16.3708 28.2963C 16.5946 28.0602 16.7319 27.9463 16.8171 27.9149L 16.4714 26.9766C 16.1301 27.1023 15.8384 27.4044 15.6451 27.6082C 15.4046 27.862 15.2583 28.0289 15.1298 28.1145L 15.6845 28.9466ZM 16.8171 27.9149C 16.7028 27.957 16.6048 27.9446 16.5558 27.9339C 16.5053 27.9229 16.4704 27.906 16.4565 27.8988C 16.4291 27.8847 16.4198 27.8749 16.4343 27.8868C 16.4596 27.9075 16.5058 27.9511 16.5749 28.0239C 16.7098 28.1659 16.8837 28.3671 17.0715 28.5871C 17.255 28.8019 17.4511 29.0335 17.6179 29.2199C 17.7015 29.3132 17.783 29.4011 17.856 29.4733C 17.917 29.5336 18.0101 29.6222 18.1101 29.679L 18.6041 28.8095C 18.6324 28.8256 18.6231 28.8256 18.5591 28.7623C 18.5072 28.711 18.4412 28.6403 18.363 28.5529C 18.2062 28.3778 18.0212 28.1592 17.8319 27.9375C 17.6469 27.721 17.4561 27.4995 17.3 27.3352C 17.2236 27.2548 17.1427 27.1743 17.0676 27.1128C 17.0319 27.0836 16.9789 27.0432 16.9156 27.0105C 16.8838 26.994 16.8329 26.9708 16.7683 26.9568C 16.7054 26.9431 16.5955 26.9308 16.4714 26.9766L 16.8171 27.9149ZM 18.1101 29.679C 18.7069 30.0181 19.3744 30.1493 20.0081 30.2014C 20.6344 30.2529 21.2857 30.2296 21.8209 30.2296L 21.8209 29.2296C 21.2351 29.2296 20.6618 29.2518 20.0901 29.2047C 19.5257 29.1583 19.0219 29.0469 18.6041 28.8095L 18.1101 29.679ZM 21.8209 30.2296C 22.3303 30.2296 23.4857 30.2703 24.5234 30.1111C 25.0416 30.0316 25.5776 29.8964 26.0083 29.6526C 26.4493 29.4029 26.8292 29.007 26.895 28.4145L 25.9011 28.304C 25.8822 28.4748 25.7814 28.6319 25.5157 28.7823C 25.2397 28.9386 24.8428 29.0505 24.3718 29.1227C 23.4312 29.267 22.3828 29.2296 21.8209 29.2296L 21.8209 30.2296ZM 26.895 28.4145C 26.9457 27.9585 26.9117 27.3638 26.7924 26.8076C 26.6765 26.2676 26.4601 25.6683 26.076 25.2841L 25.3689 25.9913C 25.5456 26.168 25.711 26.5344 25.8146 27.0175C 25.9148 27.4843 25.9383 27.97 25.9011 28.304L 26.895 28.4145ZM 26.076 25.2841C 25.9625 25.1707 25.8356 25.0972 25.7231 25.0519C 25.6186 25.0099 25.4949 24.9797 25.3746 24.9826C 25.3425 24.9834 25.2948 24.9869 25.2404 25.0009C 25.1992 25.0116 25.0834 25.0454 24.9843 25.1538C 24.9282 25.2152 24.8776 25.3012 24.8587 25.4091C 24.84 25.5159 24.8582 25.6106 24.886 25.6819C 24.9352 25.8082 25.0205 25.8797 25.0521 25.9046C 25.1256 25.9628 25.2048 25.995 25.2495 26.0117C 25.3046 26.0323 25.3665 26.0503 25.4334 26.0665L 25.669 25.0947C 25.6274 25.0846 25.6061 25.0774 25.5995 25.075C 25.5824 25.0686 25.6213 25.0799 25.6724 25.1203C 25.6928 25.1364 25.7714 25.1998 25.8178 25.3189C 25.8441 25.3866 25.8619 25.4779 25.8437 25.5816C 25.8254 25.6864 25.7763 25.7696 25.7225 25.8284C 25.6282 25.9316 25.5206 25.9614 25.4908 25.9691C 25.4477 25.9802 25.4144 25.9819 25.3992 25.9823C 25.3469 25.9836 25.3328 25.9728 25.3499 25.9797C 25.3591 25.9834 25.366 25.9884 25.3689 25.9913L 26.076 25.2841ZM 25.4334 26.0665C 25.8744 26.1734 26.4406 26.1546 26.8357 26.0938L 26.6837 25.1054C 26.3611 25.1551 25.9374 25.1597 25.669 25.0947L 25.4334 26.0665ZM 26.8357 26.0938C 27.3458 26.0153 27.8219 25.708 28.2 25.4158C 28.5737 25.127 28.963 24.7591 29.2053 24.5534L 28.5582 23.7911C 28.242 24.0595 27.9476 24.3471 27.5886 24.6245C 27.234 24.8985 26.9283 25.0678 26.6837 25.1054L 26.8357 26.0938ZM 29.2053 24.5534C 30.3753 23.5603 30.7765 22.3672 30.8372 20.939L 29.8381 20.8965C 29.7856 22.13 29.4591 23.0263 28.5582 23.7911L 29.2053 24.5534ZM 30.8372 20.939C 30.8665 20.25 30.9884 19.1171 30.967 18.0729C 30.9459 17.0399 30.7899 15.8798 30.1321 15.1343L 29.3823 15.796C 29.7804 16.2472 29.9463 17.0706 29.9672 18.0934C 29.9879 19.1049 29.872 20.1 29.8381 20.8965L 30.8372 20.939ZM 30.1321 15.1343C 30.0402 15.0302 29.9137 14.96 29.8581 14.9294C 29.7842 14.8887 29.7012 14.8489 29.6479 14.8228C 29.5669 14.7831 29.5716 14.7821 29.5961 14.8007C 29.602 14.8052 29.6522 14.8418 29.6973 14.9095C 29.7426 14.9774 29.8639 15.2201 29.6876 15.4677C 29.5692 15.6341 29.3982 15.6609 29.3909 15.6623C 29.3502 15.6705 29.3214 15.6702 29.3195 15.6702L 29.3195 14.6702C 29.2942 14.6702 29.2475 14.6712 29.194 14.6819C 29.1738 14.686 28.9949 14.7165 28.8729 14.8879C 28.6931 15.1405 28.8153 15.3893 28.8653 15.4642C 28.9152 15.5391 28.974 15.5839 28.9918 15.5974C 29.064 15.6522 29.1696 15.702 29.2078 15.7207C 29.2738 15.7531 29.3285 15.7794 29.3759 15.8055C 29.4417 15.8417 29.4202 15.8389 29.3823 15.796L 30.1321 15.1343ZM 29.3195 15.6702C 29.4013 15.6702 29.4945 15.6754 29.6074 15.6826C 29.7151 15.6895 29.8413 15.6983 29.9669 15.702C 30.2088 15.709 30.5222 15.7015 30.8089 15.5868L 30.4375 14.6583C 30.352 14.6925 30.2133 14.7088 29.9962 14.7024C 29.8923 14.6994 29.7874 14.6921 29.6713 14.6847C 29.5605 14.6776 29.4374 14.6702 29.3195 14.6702L 29.3195 15.6702ZM 30.8089 15.5868C 31.4398 15.3344 32.0003 14.769 32.4399 14.2101C 32.8907 13.6369 33.2662 13.0027 33.5128 12.5262L 32.6247 12.0665C 32.3981 12.5044 32.0553 13.0815 31.6539 13.5919C 31.2412 14.1166 30.8156 14.5071 30.4375 14.6583L 30.8089 15.5868ZM 33.5128 12.5262C 33.842 11.89 33.9433 11.1718 33.9666 10.4977C 33.9895 9.83422 33.9362 9.13154 33.9206 8.58056L 32.921 8.60872C 32.9386 9.23122 32.9887 9.83921 32.9672 10.4631C 32.946 11.0764 32.8546 11.6223 32.6247 12.0665L 33.5128 12.5262ZM 33.9206 8.58056C 33.8864 7.36326 33.4277 6.46008 32.7039 5.77971C 31.9992 5.11719 31.0645 4.68599 30.1052 4.3456L 29.7708 5.28802C 30.6913 5.61465 31.4676 5.98991 32.019 6.50832C 32.5515 7.00889 32.8944 7.66111 32.921 8.60872L 33.9206 8.58056ZM 30.1052 4.3456C 29.9827 4.30211 29.8148 4.26673 29.6658 4.23809C 29.5087 4.20789 29.3277 4.17717 29.1705 4.14924C 29.0059 4.11999 28.8683 4.09398 28.7733 4.07053C 28.7231 4.05813 28.7056 4.0514 28.708 4.0524C 28.7102 4.05329 28.7169 4.05611 28.7265 4.06117C 28.7356 4.06591 28.7528 4.07545 28.7738 4.09084C 28.7933 4.10508 28.9311 4.20461 28.9585 4.40728L 27.9675 4.54119C 27.9967 4.75706 28.1451 4.86991 28.1829 4.89757C 28.2388 4.93855 28.2939 4.96327 28.3261 4.9766C 28.3945 5.00487 28.4705 5.0258 28.5336 5.04138C 28.6654 5.0739 28.8342 5.10515 28.9956 5.13382C 29.1644 5.16381 29.3291 5.19167 29.477 5.22011C 29.633 5.2501 29.7296 5.2734 29.7708 5.28802L 30.1052 4.3456ZM 28.9585 4.40728C 28.8427 3.55009 28.2105 2.84961 27.5921 2.31995C 26.9666 1.78428 26.2158 1.31337 25.7645 0.992922L 25.1855 1.80825C 25.7075 2.1789 26.3611 2.58233 26.9416 3.07948C 27.5291 3.58263 27.9043 4.07343 27.9675 4.54119L 28.9585 4.40728ZM 25.7645 0.992922C 24.7576 0.277875 23.7589 -0.434936 22.3048 -0.402978L 22.3267 0.596781C 23.4076 0.573026 24.1523 1.07453 25.1855 1.80825L 25.7645 0.992922ZM 22.3048 -0.402978C 21.7689 -0.391201 20.5227 -0.320367 19.3968 -0.0399062C 18.8373 0.0994562 18.2675 0.299988 17.8265 0.598059C 17.3809 0.899269 17.0007 1.35051 17.0007 1.98106L 18.0007 1.98106C 18.0007 1.80854 18.0921 1.6256 18.3866 1.42653C 18.6857 1.22433 19.1244 1.05849 19.6385 0.930444C 20.6597 0.67608 21.821 0.607895 22.3267 0.596781L 22.3048 -0.402978ZM 17.0007 1.98106C 17.0007 1.99914 16.9998 2.07801 17.0287 2.16534C 17.0395 2.19792 17.0874 2.33982 17.2398 2.43586C 17.451 2.56903 17.6644 2.50502 17.7725 2.43848C 17.8599 2.38473 17.9084 2.3178 17.9237 2.29621C 17.9451 2.26596 17.9597 2.23866 17.9684 2.22146C 17.9859 2.18646 17.9985 2.15305 18.0069 2.12903C 18.0399 2.03461 18.0695 1.90454 18.0897 1.76934C 18.1105 1.63052 18.1249 1.46204 18.1172 1.29047C 18.1099 1.12555 18.0806 0.919079 17.9859 0.72973L 17.0915 1.17694C 17.0975 1.18895 17.1139 1.23739 17.1182 1.33513C 17.1223 1.42622 17.1147 1.52816 17.1007 1.6217C 17.0862 1.71886 17.0685 1.7831 17.0629 1.79912C 17.0617 1.80271 17.0652 1.79168 17.0745 1.77309C 17.079 1.7641 17.0898 1.74351 17.1075 1.71841C 17.1192 1.70195 17.1643 1.63858 17.2486 1.58672C 17.3537 1.52208 17.5643 1.45829 17.7731 1.58993C 17.923 1.68443 17.9688 1.82305 17.9779 1.85048C 17.9933 1.89711 17.9975 1.93426 17.9989 1.94755C 18.0006 1.9645 18.0007 1.97656 18.0007 1.98106L 17.0007 1.98106ZM 17.9859 0.72973C 17.6977 0.153237 17.1672 -0.191261 16.5994 -0.36083C 16.0328 -0.530055 15.3924 -0.538807 14.7955 -0.420339C 13.6558 -0.194132 12.3759 0.589376 12.3759 1.98106L 13.3759 1.98106C 13.3759 1.32445 14.0081 0.755436 14.9902 0.560528C 15.4542 0.468437 15.927 0.481977 16.3133 0.597349C 16.6984 0.712376 16.9604 0.914779 17.0915 1.17694L 17.9859 0.72973Z"/>
<path id="path2_fill" d="M 1.45973 5.55554C 1.7678 4.58353 2.07578 3.58853 2.32215 2.59218C 3.56728 2.14102 2.60035 1.28459 3.40222 0.499413C 4.05811 -0.142827 5.45865 0.0178775 6.34055 0.0178775C 7.66733 0.0178775 9.70001 0.156754 10.6558 1.20968C 11.8741 2.55172 12.1469 4.95353 11.9344 6.68715C 11.6731 8.81977 10.8683 13.1418 8.8117 14.3676C 6.80371 15.5645 3.39431 14.848 1.37367 13.9824C -0.686863 13.0997 0.0337822 11.3936 0.586837 9.64859C 1.01044 8.31206 1.03309 6.90164 1.45973 5.55554Z"/>
<path id="path3_stroke" d="M 2.9563 2.07499C 3.01533 1.80523 2.84451 1.53869 2.57475 1.47966C 2.30499 1.42062 2.03845 1.59145 1.97942 1.86121L 2.9563 2.07499ZM 1.45973 5.55554L 1.93636 5.7066L 1.93636 5.7066L 1.45973 5.55554ZM 0.586837 9.64859L 0.110203 9.49753L 0.110203 9.49753L 0.586837 9.64859ZM 1.37367 13.9824L 1.17678 14.442L 1.17678 14.442L 1.37367 13.9824ZM 8.8117 14.3676L 9.06769 14.7971L 9.06769 14.7971L 8.8117 14.3676ZM 11.9344 6.68715L 11.4381 6.62633L 11.4381 6.62633L 11.9344 6.68715ZM 10.6558 1.20968L 11.026 0.873608L 11.026 0.873607L 10.6558 1.20968ZM 3.40222 0.499413L 3.75204 0.856665L 3.75204 0.856665L 3.40222 0.499413ZM 2.09142 2.14285C 1.8289 2.22853 1.68556 2.5108 1.77124 2.77331C 1.85692 3.03583 2.13919 3.17918 2.40171 3.09349L 2.09142 2.14285ZM 1.97942 1.86121C 1.93496 2.06437 1.88724 2.26807 1.83677 2.47216L 2.80753 2.7122C 2.85995 2.50022 2.90974 2.28773 2.9563 2.07499L 1.97942 1.86121ZM 1.83677 2.47216C 1.59463 3.45142 1.29101 4.43295 0.983096 5.40447L 1.93636 5.7066C 2.24458 4.73412 2.55694 3.72565 2.80753 2.7122L 1.83677 2.47216ZM 0.983096 5.40447C 0.756967 6.11795 0.639661 6.84306 0.528636 7.52535C 0.415712 8.21931 0.309154 8.8698 0.110203 9.49753L 1.06347 9.79966C 1.28812 9.09084 1.40469 8.36786 1.51565 7.68596C 1.62852 6.99238 1.73585 6.33924 1.93636 5.7066L 0.983096 5.40447ZM 0.110203 9.49753C -0.0230998 9.91812 -0.179136 10.3745 -0.296025 10.8075C -0.413825 11.2439 -0.504686 11.6996 -0.499812 12.1443C -0.494855 12.5967 -0.390566 13.0501 -0.108658 13.4611C 0.171635 13.8697 0.598653 14.1943 1.17678 14.442L 1.57056 13.5228C 1.11842 13.3291 0.862818 13.1095 0.71599 12.8954C 0.570778 12.6837 0.503444 12.436 0.500128 12.1334C 0.496728 11.8231 0.560943 11.4699 0.669419 11.0681C 0.778806 10.6629 0.920246 10.2516 1.06347 9.79966L 0.110203 9.49753ZM 1.17678 14.442C 2.22806 14.8924 3.6348 15.3025 5.04691 15.4459C 6.44644 15.588 7.92877 15.476 9.06769 14.7971L 8.5557 13.9381C 7.68663 14.4561 6.46027 14.5843 5.14795 14.451C 3.8482 14.319 2.53992 13.9381 1.57056 13.5228L 1.17678 14.442ZM 9.06769 14.7971C 9.67752 14.4337 10.1657 13.8597 10.5586 13.2087C 10.9532 12.5549 11.2688 11.7951 11.5215 11.0229C 12.0266 9.47922 12.2981 7.82986 12.4307 6.74797L 11.4381 6.62633C 11.3094 7.67706 11.0478 9.25504 10.5711 10.712C 10.3328 11.4401 10.0453 12.124 9.70245 12.6919C 9.35787 13.2628 8.97418 13.6887 8.5557 13.9381L 9.06769 14.7971ZM 12.4307 6.74797C 12.5429 5.83293 12.5272 4.74574 12.3222 3.70498C 12.1184 2.66946 11.7183 1.6362 11.026 0.873608L 10.2856 1.54575C 10.8116 2.1252 11.1571 2.96387 11.3411 3.89816C 11.524 4.82722 11.5385 5.80774 11.4381 6.62633L 12.4307 6.74797ZM 11.026 0.873607C 10.4429 0.231184 9.5714 -0.0961268 8.73988 -0.270433C 7.89663 -0.447198 7.01686 -0.482122 6.34055 -0.482122L 6.34055 0.517878C 6.99101 0.517878 7.79098 0.552391 8.53472 0.708295C 9.29019 0.866659 9.91298 1.13525 10.2856 1.54575L 11.026 0.873607ZM 6.34055 -0.482122C 5.95271 -0.482122 5.31343 -0.522513 4.74976 -0.480833C 4.18581 -0.439133 3.51452 -0.310338 3.05241 0.142162L 3.75204 0.856665C 3.94581 0.666924 4.30274 0.554951 4.8235 0.516444C 5.34455 0.477916 5.8465 0.517878 6.34055 0.517878L 6.34055 -0.482122ZM 3.05241 0.142162C 2.4816 0.701085 2.54057 1.34452 2.52878 1.65189C 2.52231 1.82042 2.50319 1.88205 2.4788 1.9213C 2.46004 1.95147 2.39729 2.03314 2.15182 2.12209L 2.49249 3.06227C 2.86958 2.92564 3.15288 2.73107 3.32808 2.44924C 3.49763 2.17648 3.52036 1.89034 3.52804 1.69022C 3.54453 1.26029 3.52097 1.08292 3.75204 0.856665L 3.05241 0.142162ZM 2.15182 2.12209C 2.13272 2.12901 2.11261 2.13593 2.09142 2.14285L 2.40171 3.09349C 2.43264 3.08339 2.4629 3.07299 2.49249 3.06227L 2.15182 2.12209Z"/>
<path id="path4_stroke" d="M -0.353553 1.95926C -0.548816 2.15452 -0.548816 2.47111 -0.353553 2.66637C -0.158291 2.86163 0.158291 2.86163 0.353553 2.66637L -0.353553 1.95926ZM 1.70335 0.162212L 2.18412 0.299572L 1.70335 0.162212ZM 1.3703 2.31281L 1.86943 2.28345L 1.3703 2.31281ZM 0.409221 2.2605C 0.285727 2.50748 0.385839 2.80782 0.632828 2.93132C 0.879818 3.05481 1.18015 2.9547 1.30365 2.70771L 0.409221 2.2605ZM 0.353553 2.66637C 0.615493 2.40443 1.01396 2.03787 1.3523 1.65791C 1.69097 1.27757 2.03746 0.81286 2.18412 0.299572L 1.22259 0.0248509C 1.13981 0.314572 0.918952 0.640842 0.60547 0.992889C 0.291656 1.34531 -0.046842 1.65255 -0.353553 1.95926L 0.353553 2.66637ZM 2.18412 0.299572C 2.19751 0.252709 2.20526 0.22998 2.20793 0.222919C 2.20962 0.218464 2.20574 0.229677 2.19599 0.248187C 2.19109 0.257495 2.18035 0.277028 2.16313 0.30065C 2.14934 0.319556 2.1113 0.369486 2.04499 0.414577C 1.97438 0.462594 1.82627 0.532799 1.63991 0.483477C 1.46627 0.43752 1.37766 0.317718 1.34514 0.264802C 1.31028 0.208083 1.29587 0.158247 1.29056 0.138332C 1.28409 0.114053 1.28124 0.0951052 1.28 0.0858011C 1.27633 0.0581451 1.27837 0.0482608 1.2774 0.0797127C 1.274 0.189839 1.24945 0.431494 1.21353 0.758655C 1.14602 1.37361 1.04158 2.25896 1.04158 2.722L 2.04158 2.722C 2.04158 2.33008 2.13547 1.5245 2.20756 0.86778C 2.24145 0.559107 2.27201 0.269741 2.27693 0.110564C 2.27804 0.0746904 2.27924 0.0138376 2.27128 -0.0459779C 2.26967 -0.0581215 2.25919 -0.157787 2.1971 -0.258804C 2.16262 -0.314905 2.07183 -0.43664 1.89576 -0.483238C 1.70698 -0.533202 1.55621 -0.462348 1.48269 -0.412354C 1.36698 -0.333678 1.31526 -0.225508 1.31123 -0.217846C 1.29363 -0.184445 1.28087 -0.152719 1.27256 -0.130732C 1.25523 -0.0849104 1.23856 -0.0310448 1.22259 0.0248509L 2.18412 0.299572ZM 1.04158 2.722C 1.04158 2.84084 1.03942 2.92439 1.03624 2.98011C 1.03219 3.05103 1.02804 3.04233 1.03914 3.00445C 1.04287 2.99175 1.05336 2.9579 1.07611 2.91679C 1.09354 2.8853 1.15264 2.78493 1.28169 2.71951C 1.45004 2.63416 1.62695 2.66074 1.75008 2.73125C 1.84545 2.78587 1.89505 2.85704 1.91022 2.87962C 1.93049 2.9098 1.94185 2.93464 1.94634 2.94489C 1.95163 2.95696 1.95453 2.9654 1.95543 2.96809C 1.9571 2.97308 1.95616 2.97104 1.95319 2.95863C 1.92391 2.83643 1.88337 2.5203 1.86943 2.28345L 0.871159 2.34218C 0.886589 2.60448 0.931686 2.98699 0.980711 3.19162C 0.987525 3.22006 0.996258 3.25307 1.00737 3.28618C 1.01519 3.30948 1.03678 3.37269 1.08004 3.43711C 1.09962 3.46627 1.15355 3.542 1.25313 3.59904C 1.38049 3.67197 1.56151 3.69881 1.73385 3.61144C 1.86689 3.544 1.92985 3.43932 1.95102 3.40108C 1.97751 3.35323 1.99159 3.31021 1.99876 3.28577C 2.02362 3.20094 2.03079 3.1042 2.03462 3.03706C 2.03931 2.95471 2.04158 2.85018 2.04158 2.722L 1.04158 2.722ZM 1.86943 2.28345C 1.86346 2.18194 1.84955 2.07592 1.81793 1.97679C 1.78872 1.88526 1.72501 1.73807 1.57628 1.63333C 1.40173 1.51039 1.20896 1.51252 1.06899 1.55616C 0.948015 1.59389 0.859211 1.66237 0.807815 1.70736C 0.701498 1.80043 0.614652 1.91972 0.557358 2.00611C 0.495581 2.09925 0.44309 2.19276 0.409221 2.2605L 1.30365 2.70771C 1.32026 2.67449 1.35255 2.61639 1.39072 2.55883C 1.40944 2.5306 1.42719 2.50613 1.44279 2.48678C 1.45944 2.46612 1.46766 2.45876 1.46649 2.45978C 1.46544 2.46071 1.45804 2.46715 1.44432 2.47577C 1.43115 2.48405 1.40493 2.4989 1.36668 2.51083C 1.27792 2.5385 1.13298 2.54423 1.00047 2.45091C 0.893787 2.37577 0.866344 2.28421 0.865244 2.28076C 0.861722 2.26972 0.867751 2.28424 0.871159 2.34218L 1.86943 2.28345Z"/>
<path id="path5_stroke" d="M -0.490745 2.65187C -0.543629 2.9229 -0.366786 3.18549 -0.0957552 3.23837C 0.175276 3.29125 0.437861 3.11441 0.490745 2.84338L -0.490745 2.65187ZM 0.599505 0.435251L 1.03658 0.678072L 1.03658 0.678072L 0.599505 0.435251ZM 0.856435 0.48283L 0.356804 0.502047L 0.856435 0.48283ZM 1.27514 2.31941L 1.66981 2.01244L 1.27514 2.31941ZM 0.685148 2.24763C 0.409006 2.24763 0.185148 2.47148 0.185148 2.74763C 0.185148 3.02377 0.409006 3.24763 0.685148 3.24763L 0.685148 2.24763ZM 0.490745 2.84338C 0.573252 2.42053 0.614678 2.08955 0.703854 1.67049C 0.786208 1.28348 0.888023 0.94548 1.03658 0.678072L 0.162426 0.192429C -0.0582375 0.589623 -0.184828 1.04215 -0.274246 1.46235C -0.356843 1.8505 -0.430558 2.34341 -0.490745 2.65187L 0.490745 2.84338ZM 1.03658 0.678072C 1.10628 0.552624 1.15687 0.434043 1.19065 0.352763C 1.20959 0.307169 1.21892 0.283939 1.22765 0.264159C 1.23151 0.25539 1.23156 0.255881 1.22872 0.261278C 1.22858 0.261539 1.21326 0.292116 1.18246 0.328795C 1.16671 0.347544 1.13285 0.385037 1.07916 0.420158C 1.02414 0.456157 0.924686 0.504548 0.792316 0.499665C 0.502321 0.488967 0.385844 0.258188 0.37277 0.232023C 0.345679 0.177806 0.337939 0.134574 0.337784 0.133811C 0.336067 0.125338 0.336306 0.124106 0.337521 0.134974C 0.343234 0.186117 0.348787 0.293595 0.356804 0.502047L 1.35607 0.463614C 1.3486 0.26939 1.34203 0.11965 1.33134 0.0239548C 1.32845 -0.00188666 1.32432 -0.0329304 1.31785 -0.0648635C 1.31294 -0.0890868 1.30006 -0.149428 1.26732 -0.214952C 1.24859 -0.252425 1.12596 -0.488708 0.829181 -0.499656C 0.572134 -0.509138 0.430369 -0.330609 0.41669 -0.314322C 0.354654 -0.240454 0.318515 -0.1526 0.312664 -0.139332C 0.298153 -0.106426 0.280314 -0.0625291 0.267189 -0.0309411C 0.236822 0.0421436 0.203693 0.118149 0.162426 0.192429L 1.03658 0.678072ZM 0.356804 0.502047C 0.367311 0.775214 0.39351 1.15807 0.461769 1.53333C 0.526394 1.88861 0.642169 2.32 0.88046 2.62638L 1.66981 2.01244C 1.58904 1.90859 1.50554 1.68378 1.44562 1.35437C 1.38934 1.04493 1.36572 0.714614 1.35607 0.463614L 0.356804 0.502047ZM 0.88046 2.62638C 0.909394 2.66358 0.908907 2.67163 0.902184 2.65379C 0.894754 2.63408 0.874034 2.56609 0.89678 2.47291C 0.921009 2.37366 0.979467 2.30698 1.02594 2.27144C 1.06569 2.24104 1.09466 2.23414 1.08913 2.23574C 1.07496 2.23986 1.02875 2.24727 0.939541 2.24923C 0.899543 2.2501 0.858094 2.24984 0.814729 2.24922C 0.775359 2.24867 0.725379 2.24763 0.685148 2.24763L 0.685148 3.24763C 0.72398 3.24763 0.862041 3.25116 0.961438 3.24899C 1.06861 3.24664 1.22305 3.23818 1.36812 3.19604C 1.49075 3.16041 1.78616 3.04635 1.86825 2.71006C 1.94194 2.40819 1.77981 2.15386 1.66981 2.01244L 0.88046 2.62638Z"/>
<path id="path6_stroke" d="M 0.5 0C 0.5 -0.276142 0.276142 -0.5 0 -0.5C -0.276142 -0.5 -0.5 -0.276142 -0.5 0L 0.5 0ZM -0.5 1.02772C -0.5 1.30386 -0.276142 1.52772 0 1.52772C 0.276142 1.52772 0.5 1.30386 0.5 1.02772L -0.5 1.02772ZM -0.5 0C -0.5 0.00066909 -0.5 0.00133818 -0.5 0.00200727C -0.5 0.00267636 -0.5 0.00334545 -0.5 0.00401454C -0.5 0.00468363 -0.5 0.00535272 -0.5 0.00602181C -0.5 0.0066909 -0.5 0.00735999 -0.5 0.00802908C -0.5 0.00869817 -0.5 0.00936726 -0.5 0.0100363C -0.5 0.0107054 -0.5 0.0113745 -0.5 0.0120436C -0.5 0.0127127 -0.5 0.0133818 -0.5 0.0140509C -0.5 0.01472 -0.5 0.0153891 -0.5 0.0160582C -0.5 0.0167272 -0.5 0.0173963 -0.5 0.0180654C -0.5 0.0187345 -0.5 0.0194036 -0.5 0.0200727C -0.5 0.0207418 -0.5 0.0214109 -0.5 0.02208C -0.5 0.0227491 -0.5 0.0234181 -0.5 0.0240872C -0.5 0.0247563 -0.5 0.0254254 -0.5 0.0260945C -0.5 0.0267636 -0.5 0.0274327 -0.5 0.0281018C -0.5 0.0287709 -0.5 0.02944 -0.5 0.030109C -0.5 0.0307781 -0.5 0.0314472 -0.5 0.0321163C -0.5 0.0327854 -0.5 0.0334545 -0.5 0.0341236C -0.5 0.0347927 -0.5 0.0354618 -0.5 0.0361309C -0.5 0.0367999 -0.5 0.037469 -0.5 0.0381381C -0.5 0.0388072 -0.5 0.0394763 -0.5 0.0401454C -0.5 0.0408145 -0.5 0.0414836 -0.5 0.0421527C -0.5 0.0428218 -0.5 0.0434908 -0.5 0.0441599C -0.5 0.044829 -0.5 0.0454981 -0.5 0.0461672C -0.5 0.0468363 -0.5 0.0475054 -0.5 0.0481745C -0.5 0.0488436 -0.5 0.0495127 -0.5 0.0501817C -0.5 0.0508508 -0.5 0.0515199 -0.5 0.052189C -0.5 0.0528581 -0.5 0.0535272 -0.5 0.0541963C -0.5 0.0548654 -0.5 0.0555345 -0.5 0.0562036C -0.5 0.0568726 -0.5 0.0575417 -0.5 0.0582108C -0.5 0.0588799 -0.5 0.059549 -0.5 0.0602181C -0.5 0.0608872 -0.5 0.0615563 -0.5 0.0622254C -0.5 0.0628944 -0.5 0.0635635 -0.5 0.0642326C -0.5 0.0649017 -0.5 0.0655708 -0.5 0.0662399C -0.5 0.066909 -0.5 0.0675781 -0.5 0.0682472C -0.5 0.0689163 -0.5 0.0695853 -0.5 0.0702544C -0.5 0.0709235 -0.5 0.0715926 -0.5 0.0722617C -0.5 0.0729308 -0.5 0.0735999 -0.5 0.074269C -0.5 0.0749381 -0.5 0.0756072 -0.5 0.0762762C -0.5 0.0769453 -0.5 0.0776144 -0.5 0.0782835C -0.5 0.0789526 -0.5 0.0796217 -0.5 0.0802908C -0.5 0.0809599 -0.5 0.081629 -0.5 0.0822981C -0.5 0.0829671 -0.5 0.0836362 -0.5 0.0843053C -0.5 0.0849744 -0.5 0.0856435 -0.5 0.0863126C -0.5 0.0869817 -0.5 0.0876508 -0.5 0.0883199C -0.5 0.088989 -0.5 0.089658 -0.5 0.0903271C -0.5 0.0909962 -0.5 0.0916653 -0.5 0.0923344C -0.5 0.0930035 -0.5 0.0936726 -0.5 0.0943417C -0.5 0.0950108 -0.5 0.0956799 -0.5 0.0963489C -0.5 0.097018 -0.5 0.0976871 -0.5 0.0983562C -0.5 0.0990253 -0.5 0.0996944 -0.5 0.100363C -0.5 0.101033 -0.5 0.101702 -0.5 0.102371C -0.5 0.10304 -0.5 0.103709 -0.5 0.104378C -0.5 0.105047 -0.5 0.105716 -0.5 0.106385C -0.5 0.107054 -0.5 0.107723 -0.5 0.108393C -0.5 0.109062 -0.5 0.109731 -0.5 0.1104C -0.5 0.111069 -0.5 0.111738 -0.5 0.112407C -0.5 0.113076 -0.5 0.113745 -0.5 0.114414C -0.5 0.115083 -0.5 0.115753 -0.5 0.116422C -0.5 0.117091 -0.5 0.11776 -0.5 0.118429C -0.5 0.119098 -0.5 0.119767 -0.5 0.120436C -0.5 0.121105 -0.5 0.121774 -0.5 0.122443C -0.5 0.123113 -0.5 0.123782 -0.5 0.124451C -0.5 0.12512 -0.5 0.125789 -0.5 0.126458C -0.5 0.127127 -0.5 0.127796 -0.5 0.128465C -0.5 0.129134 -0.5 0.129803 -0.5 0.130473C -0.5 0.131142 -0.5 0.131811 -0.5 0.13248C -0.5 0.133149 -0.5 0.133818 -0.5 0.134487C -0.5 0.135156 -0.5 0.135825 -0.5 0.136494C -0.5 0.137163 -0.5 0.137833 -0.5 0.138502C -0.5 0.139171 -0.5 0.13984 -0.5 0.140509C -0.5 0.141178 -0.5 0.141847 -0.5 0.142516C -0.5 0.143185 -0.5 0.143854 -0.5 0.144523C -0.5 0.145193 -0.5 0.145862 -0.5 0.146531C -0.5 0.1472 -0.5 0.147869 -0.5 0.148538C -0.5 0.149207 -0.5 0.149876 -0.5 0.150545C -0.5 0.151214 -0.5 0.151883 -0.5 0.152552C -0.5 0.153222 -0.5 0.153891 -0.5 0.15456C -0.5 0.155229 -0.5 0.155898 -0.5 0.156567C -0.5 0.157236 -0.5 0.157905 -0.5 0.158574C -0.5 0.159243 -0.5 0.159912 -0.5 0.160582C -0.5 0.161251 -0.5 0.16192 -0.5 0.162589C -0.5 0.163258 -0.5 0.163927 -0.5 0.164596C -0.5 0.165265 -0.5 0.165934 -0.5 0.166603C -0.5 0.167272 -0.5 0.167942 -0.5 0.168611C -0.5 0.16928 -0.5 0.169949 -0.5 0.170618C -0.5 0.171287 -0.5 0.171956 -0.5 0.172625C -0.5 0.173294 -0.5 0.173963 -0.5 0.174632C -0.5 0.175302 -0.5 0.175971 -0.5 0.17664C -0.5 0.177309 -0.5 0.177978 -0.5 0.178647C -0.5 0.179316 -0.5 0.179985 -0.5 0.180654C -0.5 0.181323 -0.5 0.181992 -0.5 0.182662C -0.5 0.183331 -0.5 0.184 -0.5 0.184669C -0.5 0.185338 -0.5 0.186007 -0.5 0.186676C -0.5 0.187345 -0.5 0.188014 -0.5 0.188683C -0.5 0.189352 -0.5 0.190022 -0.5 0.190691C -0.5 0.19136 -0.5 0.192029 -0.5 0.192698C -0.5 0.193367 -0.5 0.194036 -0.5 0.194705C -0.5 0.195374 -0.5 0.196043 -0.5 0.196712C -0.5 0.197382 -0.5 0.198051 -0.5 0.19872C -0.5 0.199389 -0.5 0.200058 -0.5 0.200727C -0.5 0.201396 -0.5 0.202065 -0.5 0.202734C -0.5 0.203403 -0.5 0.204072 -0.5 0.204742C -0.5 0.205411 -0.5 0.20608 -0.5 0.206749C -0.5 0.207418 -0.5 0.208087 -0.5 0.208756C -0.5 0.209425 -0.5 0.210094 -0.5 0.210763C -0.5 0.211432 -0.5 0.212101 -0.5 0.212771C -0.5 0.21344 -0.5 0.214109 -0.5 0.214778C -0.5 0.215447 -0.5 0.216116 -0.5 0.216785C -0.5 0.217454 -0.5 0.218123 -0.5 0.218792C -0.5 0.219461 -0.5 0.220131 -0.5 0.2208C -0.5 0.221469 -0.5 0.222138 -0.5 0.222807C -0.5 0.223476 -0.5 0.224145 -0.5 0.224814C -0.5 0.225483 -0.5 0.226152 -0.5 0.226821C -0.5 0.227491 -0.5 0.22816 -0.5 0.228829C -0.5 0.229498 -0.5 0.230167 -0.5 0.230836C -0.5 0.231505 -0.5 0.232174 -0.5 0.232843C -0.5 0.233512 -0.5 0.234181 -0.5 0.234851C -0.5 0.23552 -0.5 0.236189 -0.5 0.236858C -0.5 0.237527 -0.5 0.238196 -0.5 0.238865C -0.5 0.239534 -0.5 0.240203 -0.5 0.240872C -0.5 0.241541 -0.5 0.242211 -0.5 0.24288C -0.5 0.243549 -0.5 0.244218 -0.5 0.244887C -0.5 0.245556 -0.5 0.246225 -0.5 0.246894C -0.5 0.247563 -0.5 0.248232 -0.5 0.248901C -0.5 0.249571 -0.5 0.25024 -0.5 0.250909C -0.5 0.251578 -0.5 0.252247 -0.5 0.252916C -0.5 0.253585 -0.5 0.254254 -0.5 0.254923C -0.5 0.255592 -0.5 0.256261 -0.5 0.256931C -0.5 0.2576 -0.5 0.258269 -0.5 0.258938C -0.5 0.259607 -0.5 0.260276 -0.5 0.260945C -0.5 0.261614 -0.5 0.262283 -0.5 0.262952C -0.5 0.263621 -0.5 0.26429 -0.5 0.26496C -0.5 0.265629 -0.5 0.266298 -0.5 0.266967C -0.5 0.267636 -0.5 0.268305 -0.5 0.268974C -0.5 0.269643 -0.5 0.270312 -0.5 0.270981C -0.5 0.27165 -0.5 0.27232 -0.5 0.272989C -0.5 0.273658 -0.5 0.274327 -0.5 0.274996C -0.5 0.275665 -0.5 0.276334 -0.5 0.277003C -0.5 0.277672 -0.5 0.278341 -0.5 0.27901C -0.5 0.27968 -0.5 0.280349 -0.5 0.281018C -0.5 0.281687 -0.5 0.282356 -0.5 0.283025C -0.5 0.283694 -0.5 0.284363 -0.5 0.285032C -0.5 0.285701 -0.5 0.28637 -0.5 0.28704C -0.5 0.287709 -0.5 0.288378 -0.5 0.289047C -0.5 0.289716 -0.5 0.290385 -0.5 0.291054C -0.5 0.291723 -0.5 0.292392 -0.5 0.293061C -0.5 0.29373 -0.5 0.2944 -0.5 0.295069C -0.5 0.295738 -0.5 0.296407 -0.5 0.297076C -0.5 0.297745 -0.5 0.298414 -0.5 0.299083C -0.5 0.299752 -0.5 0.300421 -0.5 0.30109C -0.5 0.30176 -0.5 0.302429 -0.5 0.303098C -0.5 0.303767 -0.5 0.304436 -0.5 0.305105C -0.5 0.305774 -0.5 0.306443 -0.5 0.307112C -0.5 0.307781 -0.5 0.30845 -0.5 0.30912C -0.5 0.309789 -0.5 0.310458 -0.5 0.311127C -0.5 0.311796 -0.5 0.312465 -0.5 0.313134C -0.5 0.313803 -0.5 0.314472 -0.5 0.315141C -0.5 0.31581 -0.5 0.31648 -0.5 0.317149C -0.5 0.317818 -0.5 0.318487 -0.5 0.319156C -0.5 0.319825 -0.5 0.320494 -0.5 0.321163C -0.5 0.321832 -0.5 0.322501 -0.5 0.32317C -0.5 0.323839 -0.5 0.324509 -0.5 0.325178C -0.5 0.325847 -0.5 0.326516 -0.5 0.327185C -0.5 0.327854 -0.5 0.328523 -0.5 0.329192C -0.5 0.329861 -0.5 0.33053 -0.5 0.331199C -0.5 0.331869 -0.5 0.332538 -0.5 0.333207C -0.5 0.333876 -0.5 0.334545 -0.5 0.335214C -0.5 0.335883 -0.5 0.336552 -0.5 0.337221C -0.5 0.33789 -0.5 0.338559 -0.5 0.339229C -0.5 0.339898 -0.5 0.340567 -0.5 0.341236C -0.5 0.341905 -0.5 0.342574 -0.5 0.343243C -0.5 0.343912 -0.5 0.344581 -0.5 0.34525C -0.5 0.345919 -0.5 0.346589 -0.5 0.347258C -0.5 0.347927 -0.5 0.348596 -0.5 0.349265C -0.5 0.349934 -0.5 0.350603 -0.5 0.351272C -0.5 0.351941 -0.5 0.35261 -0.5 0.353279C -0.5 0.353949 -0.5 0.354618 -0.5 0.355287C -0.5 0.355956 -0.5 0.356625 -0.5 0.357294C -0.5 0.357963 -0.5 0.358632 -0.5 0.359301C -0.5 0.35997 -0.5 0.360639 -0.5 0.361309C -0.5 0.361978 -0.5 0.362647 -0.5 0.363316C -0.5 0.363985 -0.5 0.364654 -0.5 0.365323C -0.5 0.365992 -0.5 0.366661 -0.5 0.36733C -0.5 0.367999 -0.5 0.368669 -0.5 0.369338C -0.5 0.370007 -0.5 0.370676 -0.5 0.371345C -0.5 0.372014 -0.5 0.372683 -0.5 0.373352C -0.5 0.374021 -0.5 0.37469 -0.5 0.375359C -0.5 0.376028 -0.5 0.376698 -0.5 0.377367C -0.5 0.378036 -0.5 0.378705 -0.5 0.379374C -0.5 0.380043 -0.5 0.380712 -0.5 0.381381C -0.5 0.38205 -0.5 0.382719 -0.5 0.383388C -0.5 0.384058 -0.5 0.384727 -0.5 0.385396C -0.5 0.386065 -0.5 0.386734 -0.5 0.387403C -0.5 0.388072 -0.5 0.388741 -0.5 0.38941C -0.5 0.390079 -0.5 0.390748 -0.5 0.391418C -0.5 0.392087 -0.5 0.392756 -0.5 0.393425C -0.5 0.394094 -0.5 0.394763 -0.5 0.395432C -0.5 0.396101 -0.5 0.39677 -0.5 0.397439C -0.5 0.398108 -0.5 0.398778 -0.5 0.399447C -0.5 0.400116 -0.5 0.400785 -0.5 0.401454C -0.5 0.402123 -0.5 0.402792 -0.5 0.403461C -0.5 0.40413 -0.5 0.404799 -0.5 0.405468C -0.5 0.406138 -0.5 0.406807 -0.5 0.407476C -0.5 0.408145 -0.5 0.408814 -0.5 0.409483C -0.5 0.410152 -0.5 0.410821 -0.5 0.41149C -0.5 0.412159 -0.5 0.412828 -0.5 0.413498C -0.5 0.414167 -0.5 0.414836 -0.5 0.415505C -0.5 0.416174 -0.5 0.416843 -0.5 0.417512C -0.5 0.418181 -0.5 0.41885 -0.5 0.419519C -0.5 0.420188 -0.5 0.420858 -0.5 0.421527C -0.5 0.422196 -0.5 0.422865 -0.5 0.423534C -0.5 0.424203 -0.5 0.424872 -0.5 0.425541C -0.5 0.42621 -0.5 0.426879 -0.5 0.427548C -0.5 0.428218 -0.5 0.428887 -0.5 0.429556C -0.5 0.430225 -0.5 0.430894 -0.5 0.431563C -0.5 0.432232 -0.5 0.432901 -0.5 0.43357C -0.5 0.434239 -0.5 0.434908 -0.5 0.435577C -0.5 0.436247 -0.5 0.436916 -0.5 0.437585C -0.5 0.438254 -0.5 0.438923 -0.5 0.439592C -0.5 0.440261 -0.5 0.44093 -0.5 0.441599C -0.5 0.442268 -0.5 0.442937 -0.5 0.443607C -0.5 0.444276 -0.5 0.444945 -0.5 0.445614C -0.5 0.446283 -0.5 0.446952 -0.5 0.447621C -0.5 0.44829 -0.5 0.448959 -0.5 0.449628C -0.5 0.450297 -0.5 0.450967 -0.5 0.451636C -0.5 0.452305 -0.5 0.452974 -0.5 0.453643C -0.5 0.454312 -0.5 0.454981 -0.5 0.45565C -0.5 0.456319 -0.5 0.456988 -0.5 0.457657C -0.5 0.458327 -0.5 0.458996 -0.5 0.459665C -0.5 0.460334 -0.5 0.461003 -0.5 0.461672C -0.5 0.462341 -0.5 0.46301 -0.5 0.463679C -0.5 0.464348 -0.5 0.465017 -0.5 0.465687C -0.5 0.466356 -0.5 0.467025 -0.5 0.467694C -0.5 0.468363 -0.5 0.469032 -0.5 0.469701C -0.5 0.47037 -0.5 0.471039 -0.5 0.471708C -0.5 0.472377 -0.5 0.473047 -0.5 0.473716C -0.5 0.474385 -0.5 0.475054 -0.5 0.475723C -0.5 0.476392 -0.5 0.477061 -0.5 0.47773C -0.5 0.478399 -0.5 0.479068 -0.5 0.479737C -0.5 0.480407 -0.5 0.481076 -0.5 0.481745C -0.5 0.482414 -0.5 0.483083 -0.5 0.483752C -0.5 0.484421 -0.5 0.48509 -0.5 0.485759C -0.5 0.486428 -0.5 0.487097 -0.5 0.487766C -0.5 0.488436 -0.5 0.489105 -0.5 0.489774C -0.5 0.490443 -0.5 0.491112 -0.5 0.491781C -0.5 0.49245 -0.5 0.493119 -0.5 0.493788C -0.5 0.494457 -0.5 0.495126 -0.5 0.495796C -0.5 0.496465 -0.5 0.497134 -0.5 0.497803C -0.5 0.498472 -0.5 0.499141 -0.5 0.49981C -0.5 0.500479 -0.5 0.501148 -0.5 0.501817C -0.5 0.502486 -0.5 0.503156 -0.5 0.503825C -0.5 0.504494 -0.5 0.505163 -0.5 0.505832C -0.5 0.506501 -0.5 0.50717 -0.5 0.507839C -0.5 0.508508 -0.5 0.509177 -0.5 0.509846C -0.5 0.510516 -0.5 0.511185 -0.5 0.511854C -0.5 0.512523 -0.5 0.513192 -0.5 0.513861C -0.5 0.51453 -0.5 0.515199 -0.5 0.515868C -0.5 0.516537 -0.5 0.517206 -0.5 0.517876C -0.5 0.518545 -0.5 0.519214 -0.5 0.519883C -0.5 0.520552 -0.5 0.521221 -0.5 0.52189C -0.5 0.522559 -0.5 0.523228 -0.5 0.523897C -0.5 0.524566 -0.5 0.525236 -0.5 0.525905C -0.5 0.526574 -0.5 0.527243 -0.5 0.527912C -0.5 0.528581 -0.5 0.52925 -0.5 0.529919C -0.5 0.530588 -0.5 0.531257 -0.5 0.531926C -0.5 0.532596 -0.5 0.533265 -0.5 0.533934C -0.5 0.534603 -0.5 0.535272 -0.5 0.535941C -0.5 0.53661 -0.5 0.537279 -0.5 0.537948C -0.5 0.538617 -0.5 0.539286 -0.5 0.539956C -0.5 0.540625 -0.5 0.541294 -0.5 0.541963C -0.5 0.542632 -0.5 0.543301 -0.5 0.54397C -0.5 0.544639 -0.5 0.545308 -0.5 0.545977C -0.5 0.546646 -0.5 0.547315 -0.5 0.547985C -0.5 0.548654 -0.5 0.549323 -0.5 0.549992C -0.5 0.550661 -0.5 0.55133 -0.5 0.551999C -0.5 0.552668 -0.5 0.553337 -0.5 0.554006C -0.5 0.554675 -0.5 0.555345 -0.5 0.556014C -0.5 0.556683 -0.5 0.557352 -0.5 0.558021C -0.5 0.55869 -0.5 0.559359 -0.5 0.560028C -0.5 0.560697 -0.5 0.561366 -0.5 0.562035C -0.5 0.562705 -0.5 0.563374 -0.5 0.564043C -0.5 0.564712 -0.5 0.565381 -0.5 0.56605C -0.5 0.566719 -0.5 0.567388 -0.5 0.568057C -0.5 0.568726 -0.5 0.569395 -0.5 0.570065C -0.5 0.570734 -0.5 0.571403 -0.5 0.572072C -0.5 0.572741 -0.5 0.57341 -0.5 0.574079C -0.5 0.574748 -0.5 0.575417 -0.5 0.576086C -0.5 0.576755 -0.5 0.577425 -0.5 0.578094C -0.5 0.578763 -0.5 0.579432 -0.5 0.580101C -0.5 0.58077 -0.5 0.581439 -0.5 0.582108C -0.5 0.582777 -0.5 0.583446 -0.5 0.584115C -0.5 0.584785 -0.5 0.585454 -0.5 0.586123C -0.5 0.586792 -0.5 0.587461 -0.5 0.58813C -0.5 0.588799 -0.5 0.589468 -0.5 0.590137C -0.5 0.590806 -0.5 0.591475 -0.5 0.592145C -0.5 0.592814 -0.5 0.593483 -0.5 0.594152C -0.5 0.594821 -0.5 0.59549 -0.5 0.596159C -0.5 0.596828 -0.5 0.597497 -0.5 0.598166C -0.5 0.598835 -0.5 0.599504 -0.5 0.600174C -0.5 0.600843 -0.5 0.601512 -0.5 0.602181C -0.5 0.60285 -0.5 0.603519 -0.5 0.604188C -0.5 0.604857 -0.5 0.605526 -0.5 0.606195C -0.5 0.606864 -0.5 0.607534 -0.5 0.608203C -0.5 0.608872 -0.5 0.609541 -0.5 0.61021C -0.5 0.610879 -0.5 0.611548 -0.5 0.612217C -0.5 0.612886 -0.5 0.613555 -0.5 0.614224C -0.5 0.614894 -0.5 0.615563 -0.5 0.616232C -0.5 0.616901 -0.5 0.61757 -0.5 0.618239C -0.5 0.618908 -0.5 0.619577 -0.5 0.620246C -0.5 0.620915 -0.5 0.621584 -0.5 0.622254C -0.5 0.622923 -0.5 0.623592 -0.5 0.624261C -0.5 0.62493 -0.5 0.625599 -0.5 0.626268C -0.5 0.626937 -0.5 0.627606 -0.5 0.628275C -0.5 0.628944 -0.5 0.629614 -0.5 0.630283C -0.5 0.630952 -0.5 0.631621 -0.5 0.63229C -0.5 0.632959 -0.5 0.633628 -0.5 0.634297C -0.5 0.634966 -0.5 0.635635 -0.5 0.636304C -0.5 0.636974 -0.5 0.637643 -0.5 0.638312C -0.5 0.638981 -0.5 0.63965 -0.5 0.640319C -0.5 0.640988 -0.5 0.641657 -0.5 0.642326C -0.5 0.642995 -0.5 0.643664 -0.5 0.644334C -0.5 0.645003 -0.5 0.645672 -0.5 0.646341C -0.5 0.64701 -0.5 0.647679 -0.5 0.648348C -0.5 0.649017 -0.5 0.649686 -0.5 0.650355C -0.5 0.651024 -0.5 0.651694 -0.5 0.652363C -0.5 0.653032 -0.5 0.653701 -0.5 0.65437C -0.5 0.655039 -0.5 0.655708 -0.5 0.656377C -0.5 0.657046 -0.5 0.657715 -0.5 0.658384C -0.5 0.659053 -0.5 0.659723 -0.5 0.660392C -0.5 0.661061 -0.5 0.66173 -0.5 0.662399C -0.5 0.663068 -0.5 0.663737 -0.5 0.664406C -0.5 0.665075 -0.5 0.665744 -0.5 0.666413C -0.5 0.667083 -0.5 0.667752 -0.5 0.668421C -0.5 0.66909 -0.5 0.669759 -0.5 0.670428C -0.5 0.671097 -0.5 0.671766 -0.5 0.672435C -0.5 0.673104 -0.5 0.673773 -0.5 0.674443C -0.5 0.675112 -0.5 0.675781 -0.5 0.67645C -0.5 0.677119 -0.5 0.677788 -0.5 0.678457C -0.5 0.679126 -0.5 0.679795 -0.5 0.680464C -0.5 0.681133 -0.5 0.681803 -0.5 0.682472C -0.5 0.683141 -0.5 0.68381 -0.5 0.684479C -0.5 0.685148 -0.5 0.685817 -0.5 0.686486C -0.5 0.687155 -0.5 0.687824 -0.5 0.688493C -0.5 0.689163 -0.5 0.689832 -0.5 0.690501C -0.5 0.69117 -0.5 0.691839 -0.5 0.692508C -0.5 0.693177 -0.5 0.693846 -0.5 0.694515C -0.5 0.695184 -0.5 0.695853 -0.5 0.696523C -0.5 0.697192 -0.5 0.697861 -0.5 0.69853C -0.5 0.699199 -0.5 0.699868 -0.5 0.700537C -0.5 0.701206 -0.5 0.701875 -0.5 0.702544C -0.5 0.703213 -0.5 0.703883 -0.5 0.704552C -0.5 0.705221 -0.5 0.70589 -0.5 0.706559C -0.5 0.707228 -0.5 0.707897 -0.5 0.708566C -0.5 0.709235 -0.5 0.709904 -0.5 0.710573C -0.5 0.711242 -0.5 0.711912 -0.5 0.712581C -0.5 0.71325 -0.5 0.713919 -0.5 0.714588C -0.5 0.715257 -0.5 0.715926 -0.5 0.716595C -0.5 0.717264 -0.5 0.717933 -0.5 0.718602C -0.5 0.719272 -0.5 0.719941 -0.5 0.72061C -0.5 0.721279 -0.5 0.721948 -0.5 0.722617C -0.5 0.723286 -0.5 0.723955 -0.5 0.724624C -0.5 0.725293 -0.5 0.725962 -0.5 0.726632C -0.5 0.727301 -0.5 0.72797 -0.5 0.728639C -0.5 0.729308 -0.5 0.729977 -0.5 0.730646C -0.5 0.731315 -0.5 0.731984 -0.5 0.732653C -0.5 0.733322 -0.5 0.733992 -0.5 0.734661C -0.5 0.73533 -0.5 0.735999 -0.5 0.736668C -0.5 0.737337 -0.5 0.738006 -0.5 0.738675C -0.5 0.739344 -0.5 0.740013 -0.5 0.740682C -0.5 0.741352 -0.5 0.742021 -0.5 0.74269C -0.5 0.743359 -0.5 0.744028 -0.5 0.744697C -0.5 0.745366 -0.5 0.746035 -0.5 0.746704C -0.5 0.747373 -0.5 0.748042 -0.5 0.748712C -0.5 0.749381 -0.5 0.75005 -0.5 0.750719C -0.5 0.751388 -0.5 0.752057 -0.5 0.752726C -0.5 0.753395 -0.5 0.754064 -0.5 0.754733C -0.5 0.755402 -0.5 0.756072 -0.5 0.756741C -0.5 0.75741 -0.5 0.758079 -0.5 0.758748C -0.5 0.759417 -0.5 0.760086 -0.5 0.760755C -0.5 0.761424 -0.5 0.762093 -0.5 0.762762C -0.5 0.763432 -0.5 0.764101 -0.5 0.76477C -0.5 0.765439 -0.5 0.766108 -0.5 0.766777C -0.5 0.767446 -0.5 0.768115 -0.5 0.768784C -0.5 0.769453 -0.5 0.770122 -0.5 0.770791C -0.5 0.771461 -0.5 0.77213 -0.5 0.772799C -0.5 0.773468 -0.5 0.774137 -0.5 0.774806C -0.5 0.775475 -0.5 0.776144 -0.5 0.776813C -0.5 0.777482 -0.5 0.778151 -0.5 0.778821C -0.5 0.77949 -0.5 0.780159 -0.5 0.780828C -0.5 0.781497 -0.5 0.782166 -0.5 0.782835C -0.5 0.783504 -0.5 0.784173 -0.5 0.784842C -0.5 0.785511 -0.5 0.786181 -0.5 0.78685C -0.5 0.787519 -0.5 0.788188 -0.5 0.788857C -0.5 0.789526 -0.5 0.790195 -0.5 0.790864C -0.5 0.791533 -0.5 0.792202 -0.5 0.792871C -0.5 0.793541 -0.5 0.79421 -0.5 0.794879C -0.5 0.795548 -0.5 0.796217 -0.5 0.796886C -0.5 0.797555 -0.5 0.798224 -0.5 0.798893C -0.5 0.799562 -0.5 0.800231 -0.5 0.800901C -0.5 0.80157 -0.5 0.802239 -0.5 0.802908C -0.5 0.803577 -0.5 0.804246 -0.5 0.804915C -0.5 0.805584 -0.5 0.806253 -0.5 0.806922C -0.5 0.807591 -0.5 0.808261 -0.5 0.80893C -0.5 0.809599 -0.5 0.810268 -0.5 0.810937C -0.5 0.811606 -0.5 0.812275 -0.5 0.812944C -0.5 0.813613 -0.5 0.814282 -0.5 0.814951C -0.5 0.815621 -0.5 0.81629 -0.5 0.816959C -0.5 0.817628 -0.5 0.818297 -0.5 0.818966C -0.5 0.819635 -0.5 0.820304 -0.5 0.820973C -0.5 0.821642 -0.5 0.822311 -0.5 0.822981C -0.5 0.82365 -0.5 0.824319 -0.5 0.824988C -0.5 0.825657 -0.5 0.826326 -0.5 0.826995C -0.5 0.827664 -0.5 0.828333 -0.5 0.829002C -0.5 0.829671 -0.5 0.83034 -0.5 0.83101C -0.5 0.831679 -0.5 0.832348 -0.5 0.833017C -0.5 0.833686 -0.5 0.834355 -0.5 0.835024C -0.5 0.835693 -0.5 0.836362 -0.5 0.837031C -0.5 0.8377 -0.5 0.83837 -0.5 0.839039C -0.5 0.839708 -0.5 0.840377 -0.5 0.841046C -0.5 0.841715 -0.5 0.842384 -0.5 0.843053C -0.5 0.843722 -0.5 0.844391 -0.5 0.84506C -0.5 0.84573 -0.5 0.846399 -0.5 0.847068C -0.5 0.847737 -0.5 0.848406 -0.5 0.849075C -0.5 0.849744 -0.5 0.850413 -0.5 0.851082C -0.5 0.851751 -0.5 0.85242 -0.5 0.85309C -0.5 0.853759 -0.5 0.854428 -0.5 0.855097C -0.5 0.855766 -0.5 0.856435 -0.5 0.857104C -0.5 0.857773 -0.5 0.858442 -0.5 0.859111C -0.5 0.85978 -0.5 0.86045 -0.5 0.861119C -0.5 0.861788 -0.5 0.862457 -0.5 0.863126C -0.5 0.863795 -0.5 0.864464 -0.5 0.865133C -0.5 0.865802 -0.5 0.866471 -0.5 0.86714C -0.5 0.86781 -0.5 0.868479 -0.5 0.869148C -0.5 0.869817 -0.5 0.870486 -0.5 0.871155C -0.5 0.871824 -0.5 0.872493 -0.5 0.873162C -0.5 0.873831 -0.5 0.8745 -0.5 0.87517C -0.5 0.875839 -0.5 0.876508 -0.5 0.877177C -0.5 0.877846 -0.5 0.878515 -0.5 0.879184C -0.5 0.879853 -0.5 0.880522 -0.5 0.881191C -0.5 0.88186 -0.5 0.882529 -0.5 0.883199C -0.5 0.883868 -0.5 0.884537 -0.5 0.885206C -0.5 0.885875 -0.5 0.886544 -0.5 0.887213C -0.5 0.887882 -0.5 0.888551 -0.5 0.88922C -0.5 0.889889 -0.5 0.890559 -0.5 0.891228C -0.5 0.891897 -0.5 0.892566 -0.5 0.893235C -0.5 0.893904 -0.5 0.894573 -0.5 0.895242C -0.5 0.895911 -0.5 0.89658 -0.5 0.897249C -0.5 0.897919 -0.5 0.898588 -0.5 0.899257C -0.5 0.899926 -0.5 0.900595 -0.5 0.901264C -0.5 0.901933 -0.5 0.902602 -0.5 0.903271C -0.5 0.90394 -0.5 0.904609 -0.5 0.905279C -0.5 0.905948 -0.5 0.906617 -0.5 0.907286C -0.5 0.907955 -0.5 0.908624 -0.5 0.909293C -0.5 0.909962 -0.5 0.910631 -0.5 0.9113C -0.5 0.911969 -0.5 0.912639 -0.5 0.913308C -0.5 0.913977 -0.5 0.914646 -0.5 0.915315C -0.5 0.915984 -0.5 0.916653 -0.5 0.917322C -0.5 0.917991 -0.5 0.91866 -0.5 0.919329C -0.5 0.919999 -0.5 0.920668 -0.5 0.921337C -0.5 0.922006 -0.5 0.922675 -0.5 0.923344C -0.5 0.924013 -0.5 0.924682 -0.5 0.925351C -0.5 0.92602 -0.5 0.926689 -0.5 0.927359C -0.5 0.928028 -0.5 0.928697 -0.5 0.929366C -0.5 0.930035 -0.5 0.930704 -0.5 0.931373C -0.5 0.932042 -0.5 0.932711 -0.5 0.93338C -0.5 0.934049 -0.5 0.934719 -0.5 0.935388C -0.5 0.936057 -0.5 0.936726 -0.5 0.937395C -0.5 0.938064 -0.5 0.938733 -0.5 0.939402C -0.5 0.940071 -0.5 0.94074 -0.5 0.941409C -0.5 0.942078 -0.5 0.942748 -0.5 0.943417C -0.5 0.944086 -0.5 0.944755 -0.5 0.945424C -0.5 0.946093 -0.5 0.946762 -0.5 0.947431C -0.5 0.9481 -0.5 0.948769 -0.5 0.949438C -0.5 0.950108 -0.5 0.950777 -0.5 0.951446C -0.5 0.952115 -0.5 0.952784 -0.5 0.953453C -0.5 0.954122 -0.5 0.954791 -0.5 0.95546C -0.5 0.956129 -0.5 0.956798 -0.5 0.957468C -0.5 0.958137 -0.5 0.958806 -0.5 0.959475C -0.5 0.960144 -0.5 0.960813 -0.5 0.961482C -0.5 0.962151 -0.5 0.96282 -0.5 0.963489C -0.5 0.964158 -0.5 0.964828 -0.5 0.965497C -0.5 0.966166 -0.5 0.966835 -0.5 0.967504C -0.5 0.968173 -0.5 0.968842 -0.5 0.969511C -0.5 0.97018 -0.5 0.970849 -0.5 0.971518C -0.5 0.972188 -0.5 0.972857 -0.5 0.973526C -0.5 0.974195 -0.5 0.974864 -0.5 0.975533C -0.5 0.976202 -0.5 0.976871 -0.5 0.97754C -0.5 0.978209 -0.5 0.978878 -0.5 0.979548C -0.5 0.980217 -0.5 0.980886 -0.5 0.981555C -0.5 0.982224 -0.5 0.982893 -0.5 0.983562C -0.5 0.984231 -0.5 0.9849 -0.5 0.985569C -0.5 0.986238 -0.5 0.986908 -0.5 0.987577C -0.5 0.988246 -0.5 0.988915 -0.5 0.989584C -0.5 0.990253 -0.5 0.990922 -0.5 0.991591C -0.5 0.99226 -0.5 0.992929 -0.5 0.993598C -0.5 0.994268 -0.5 0.994937 -0.5 0.995606C -0.5 0.996275 -0.5 0.996944 -0.5 0.997613C -0.5 0.998282 -0.5 0.998951 -0.5 0.99962C -0.5 1.00029 -0.5 1.00096 -0.5 1.00163C -0.5 1.0023 -0.5 1.00297 -0.5 1.00363C -0.5 1.0043 -0.5 1.00497 -0.5 1.00564C -0.5 1.00631 -0.5 1.00698 -0.5 1.00765C -0.5 1.00832 -0.5 1.00899 -0.5 1.00966C -0.5 1.01033 -0.5 1.01099 -0.5 1.01166C -0.5 1.01233 -0.5 1.013 -0.5 1.01367C -0.5 1.01434 -0.5 1.01501 -0.5 1.01568C -0.5 1.01635 -0.5 1.01702 -0.5 1.01769C -0.5 1.01835 -0.5 1.01902 -0.5 1.01969C -0.5 1.02036 -0.5 1.02103 -0.5 1.0217C -0.5 1.02237 -0.5 1.02304 -0.5 1.02371C -0.5 1.02438 -0.5 1.02505 -0.5 1.02571C -0.5 1.02638 -0.5 1.02705 -0.5 1.02772L 0.5 1.02772C 0.5 1.02705 0.5 1.02638 0.5 1.02571C 0.5 1.02505 0.5 1.02438 0.5 1.02371C 0.5 1.02304 0.5 1.02237 0.5 1.0217C 0.5 1.02103 0.5 1.02036 0.5 1.01969C 0.5 1.01902 0.5 1.01835 0.5 1.01769C 0.5 1.01702 0.5 1.01635 0.5 1.01568C 0.5 1.01501 0.5 1.01434 0.5 1.01367C 0.5 1.013 0.5 1.01233 0.5 1.01166C 0.5 1.01099 0.5 1.01033 0.5 1.00966C 0.5 1.00899 0.5 1.00832 0.5 1.00765C 0.5 1.00698 0.5 1.00631 0.5 1.00564C 0.5 1.00497 0.5 1.0043 0.5 1.00363C 0.5 1.00297 0.5 1.0023 0.5 1.00163C 0.5 1.00096 0.5 1.00029 0.5 0.99962C 0.5 0.998951 0.5 0.998282 0.5 0.997613C 0.5 0.996944 0.5 0.996275 0.5 0.995606C 0.5 0.994937 0.5 0.994268 0.5 0.993598C 0.5 0.992929 0.5 0.99226 0.5 0.991591C 0.5 0.990922 0.5 0.990253 0.5 0.989584C 0.5 0.988915 0.5 0.988246 0.5 0.987577C 0.5 0.986908 0.5 0.986238 0.5 0.985569C 0.5 0.9849 0.5 0.984231 0.5 0.983562C 0.5 0.982893 0.5 0.982224 0.5 0.981555C 0.5 0.980886 0.5 0.980217 0.5 0.979548C 0.5 0.978878 0.5 0.978209 0.5 0.97754C 0.5 0.976871 0.5 0.976202 0.5 0.975533C 0.5 0.974864 0.5 0.974195 0.5 0.973526C 0.5 0.972857 0.5 0.972188 0.5 0.971518C 0.5 0.970849 0.5 0.97018 0.5 0.969511C 0.5 0.968842 0.5 0.968173 0.5 0.967504C 0.5 0.966835 0.5 0.966166 0.5 0.965497C 0.5 0.964828 0.5 0.964158 0.5 0.963489C 0.5 0.96282 0.5 0.962151 0.5 0.961482C 0.5 0.960813 0.5 0.960144 0.5 0.959475C 0.5 0.958806 0.5 0.958137 0.5 0.957468C 0.5 0.956798 0.5 0.956129 0.5 0.95546C 0.5 0.954791 0.5 0.954122 0.5 0.953453C 0.5 0.952784 0.5 0.952115 0.5 0.951446C 0.5 0.950777 0.5 0.950108 0.5 0.949438C 0.5 0.948769 0.5 0.9481 0.5 0.947431C 0.5 0.946762 0.5 0.946093 0.5 0.945424C 0.5 0.944755 0.5 0.944086 0.5 0.943417C 0.5 0.942748 0.5 0.942078 0.5 0.941409C 0.5 0.94074 0.5 0.940071 0.5 0.939402C 0.5 0.938733 0.5 0.938064 0.5 0.937395C 0.5 0.936726 0.5 0.936057 0.5 0.935388C 0.5 0.934719 0.5 0.934049 0.5 0.93338C 0.5 0.932711 0.5 0.932042 0.5 0.931373C 0.5 0.930704 0.5 0.930035 0.5 0.929366C 0.5 0.928697 0.5 0.928028 0.5 0.927359C 0.5 0.926689 0.5 0.92602 0.5 0.925351C 0.5 0.924682 0.5 0.924013 0.5 0.923344C 0.5 0.922675 0.5 0.922006 0.5 0.921337C 0.5 0.920668 0.5 0.919999 0.5 0.919329C 0.5 0.91866 0.5 0.917991 0.5 0.917322C 0.5 0.916653 0.5 0.915984 0.5 0.915315C 0.5 0.914646 0.5 0.913977 0.5 0.913308C 0.5 0.912639 0.5 0.911969 0.5 0.9113C 0.5 0.910631 0.5 0.909962 0.5 0.909293C 0.5 0.908624 0.5 0.907955 0.5 0.907286C 0.5 0.906617 0.5 0.905948 0.5 0.905279C 0.5 0.904609 0.5 0.90394 0.5 0.903271C 0.5 0.902602 0.5 0.901933 0.5 0.901264C 0.5 0.900595 0.5 0.899926 0.5 0.899257C 0.5 0.898588 0.5 0.897919 0.5 0.897249C 0.5 0.89658 0.5 0.895911 0.5 0.895242C 0.5 0.894573 0.5 0.893904 0.5 0.893235C 0.5 0.892566 0.5 0.891897 0.5 0.891228C 0.5 0.890559 0.5 0.889889 0.5 0.88922C 0.5 0.888551 0.5 0.887882 0.5 0.887213C 0.5 0.886544 0.5 0.885875 0.5 0.885206C 0.5 0.884537 0.5 0.883868 0.5 0.883199C 0.5 0.882529 0.5 0.88186 0.5 0.881191C 0.5 0.880522 0.5 0.879853 0.5 0.879184C 0.5 0.878515 0.5 0.877846 0.5 0.877177C 0.5 0.876508 0.5 0.875839 0.5 0.87517C 0.5 0.8745 0.5 0.873831 0.5 0.873162C 0.5 0.872493 0.5 0.871824 0.5 0.871155C 0.5 0.870486 0.5 0.869817 0.5 0.869148C 0.5 0.868479 0.5 0.86781 0.5 0.86714C 0.5 0.866471 0.5 0.865802 0.5 0.865133C 0.5 0.864464 0.5 0.863795 0.5 0.863126C 0.5 0.862457 0.5 0.861788 0.5 0.861119C 0.5 0.86045 0.5 0.85978 0.5 0.859111C 0.5 0.858442 0.5 0.857773 0.5 0.857104C 0.5 0.856435 0.5 0.855766 0.5 0.855097C 0.5 0.854428 0.5 0.853759 0.5 0.85309C 0.5 0.85242 0.5 0.851751 0.5 0.851082C 0.5 0.850413 0.5 0.849744 0.5 0.849075C 0.5 0.848406 0.5 0.847737 0.5 0.847068C 0.5 0.846399 0.5 0.84573 0.5 0.84506C 0.5 0.844391 0.5 0.843722 0.5 0.843053C 0.5 0.842384 0.5 0.841715 0.5 0.841046C 0.5 0.840377 0.5 0.839708 0.5 0.839039C 0.5 0.83837 0.5 0.8377 0.5 0.837031C 0.5 0.836362 0.5 0.835693 0.5 0.835024C 0.5 0.834355 0.5 0.833686 0.5 0.833017C 0.5 0.832348 0.5 0.831679 0.5 0.83101C 0.5 0.83034 0.5 0.829671 0.5 0.829002C 0.5 0.828333 0.5 0.827664 0.5 0.826995C 0.5 0.826326 0.5 0.825657 0.5 0.824988C 0.5 0.824319 0.5 0.82365 0.5 0.822981C 0.5 0.822311 0.5 0.821642 0.5 0.820973C 0.5 0.820304 0.5 0.819635 0.5 0.818966C 0.5 0.818297 0.5 0.817628 0.5 0.816959C 0.5 0.81629 0.5 0.815621 0.5 0.814951C 0.5 0.814282 0.5 0.813613 0.5 0.812944C 0.5 0.812275 0.5 0.811606 0.5 0.810937C 0.5 0.810268 0.5 0.809599 0.5 0.80893C 0.5 0.808261 0.5 0.807591 0.5 0.806922C 0.5 0.806253 0.5 0.805584 0.5 0.804915C 0.5 0.804246 0.5 0.803577 0.5 0.802908C 0.5 0.802239 0.5 0.80157 0.5 0.800901C 0.5 0.800231 0.5 0.799562 0.5 0.798893C 0.5 0.798224 0.5 0.797555 0.5 0.796886C 0.5 0.796217 0.5 0.795548 0.5 0.794879C 0.5 0.79421 0.5 0.793541 0.5 0.792871C 0.5 0.792202 0.5 0.791533 0.5 0.790864C 0.5 0.790195 0.5 0.789526 0.5 0.788857C 0.5 0.788188 0.5 0.787519 0.5 0.78685C 0.5 0.786181 0.5 0.785511 0.5 0.784842C 0.5 0.784173 0.5 0.783504 0.5 0.782835C 0.5 0.782166 0.5 0.781497 0.5 0.780828C 0.5 0.780159 0.5 0.77949 0.5 0.778821C 0.5 0.778151 0.5 0.777482 0.5 0.776813C 0.5 0.776144 0.5 0.775475 0.5 0.774806C 0.5 0.774137 0.5 0.773468 0.5 0.772799C 0.5 0.77213 0.5 0.771461 0.5 0.770791C 0.5 0.770122 0.5 0.769453 0.5 0.768784C 0.5 0.768115 0.5 0.767446 0.5 0.766777C 0.5 0.766108 0.5 0.765439 0.5 0.76477C 0.5 0.764101 0.5 0.763432 0.5 0.762762C 0.5 0.762093 0.5 0.761424 0.5 0.760755C 0.5 0.760086 0.5 0.759417 0.5 0.758748C 0.5 0.758079 0.5 0.75741 0.5 0.756741C 0.5 0.756072 0.5 0.755402 0.5 0.754733C 0.5 0.754064 0.5 0.753395 0.5 0.752726C 0.5 0.752057 0.5 0.751388 0.5 0.750719C 0.5 0.75005 0.5 0.749381 0.5 0.748712C 0.5 0.748042 0.5 0.747373 0.5 0.746704C 0.5 0.746035 0.5 0.745366 0.5 0.744697C 0.5 0.744028 0.5 0.743359 0.5 0.74269C 0.5 0.742021 0.5 0.741352 0.5 0.740682C 0.5 0.740013 0.5 0.739344 0.5 0.738675C 0.5 0.738006 0.5 0.737337 0.5 0.736668C 0.5 0.735999 0.5 0.73533 0.5 0.734661C 0.5 0.733992 0.5 0.733322 0.5 0.732653C 0.5 0.731984 0.5 0.731315 0.5 0.730646C 0.5 0.729977 0.5 0.729308 0.5 0.728639C 0.5 0.72797 0.5 0.727301 0.5 0.726632C 0.5 0.725962 0.5 0.725293 0.5 0.724624C 0.5 0.723955 0.5 0.723286 0.5 0.722617C 0.5 0.721948 0.5 0.721279 0.5 0.72061C 0.5 0.719941 0.5 0.719272 0.5 0.718602C 0.5 0.717933 0.5 0.717264 0.5 0.716595C 0.5 0.715926 0.5 0.715257 0.5 0.714588C 0.5 0.713919 0.5 0.71325 0.5 0.712581C 0.5 0.711912 0.5 0.711242 0.5 0.710573C 0.5 0.709904 0.5 0.709235 0.5 0.708566C 0.5 0.707897 0.5 0.707228 0.5 0.706559C 0.5 0.70589 0.5 0.705221 0.5 0.704552C 0.5 0.703883 0.5 0.703213 0.5 0.702544C 0.5 0.701875 0.5 0.701206 0.5 0.700537C 0.5 0.699868 0.5 0.699199 0.5 0.69853C 0.5 0.697861 0.5 0.697192 0.5 0.696523C 0.5 0.695853 0.5 0.695184 0.5 0.694515C 0.5 0.693846 0.5 0.693177 0.5 0.692508C 0.5 0.691839 0.5 0.69117 0.5 0.690501C 0.5 0.689832 0.5 0.689163 0.5 0.688493C 0.5 0.687824 0.5 0.687155 0.5 0.686486C 0.5 0.685817 0.5 0.685148 0.5 0.684479C 0.5 0.68381 0.5 0.683141 0.5 0.682472C 0.5 0.681803 0.5 0.681133 0.5 0.680464C 0.5 0.679795 0.5 0.679126 0.5 0.678457C 0.5 0.677788 0.5 0.677119 0.5 0.67645C 0.5 0.675781 0.5 0.675112 0.5 0.674443C 0.5 0.673773 0.5 0.673104 0.5 0.672435C 0.5 0.671766 0.5 0.671097 0.5 0.670428C 0.5 0.669759 0.5 0.66909 0.5 0.668421C 0.5 0.667752 0.5 0.667083 0.5 0.666413C 0.5 0.665744 0.5 0.665075 0.5 0.664406C 0.5 0.663737 0.5 0.663068 0.5 0.662399C 0.5 0.66173 0.5 0.661061 0.5 0.660392C 0.5 0.659723 0.5 0.659053 0.5 0.658384C 0.5 0.657715 0.5 0.657046 0.5 0.656377C 0.5 0.655708 0.5 0.655039 0.5 0.65437C 0.5 0.653701 0.5 0.653032 0.5 0.652363C 0.5 0.651694 0.5 0.651024 0.5 0.650355C 0.5 0.649686 0.5 0.649017 0.5 0.648348C 0.5 0.647679 0.5 0.64701 0.5 0.646341C 0.5 0.645672 0.5 0.645003 0.5 0.644334C 0.5 0.643664 0.5 0.642995 0.5 0.642326C 0.5 0.641657 0.5 0.640988 0.5 0.640319C 0.5 0.63965 0.5 0.638981 0.5 0.638312C 0.5 0.637643 0.5 0.636974 0.5 0.636304C 0.5 0.635635 0.5 0.634966 0.5 0.634297C 0.5 0.633628 0.5 0.632959 0.5 0.63229C 0.5 0.631621 0.5 0.630952 0.5 0.630283C 0.5 0.629614 0.5 0.628944 0.5 0.628275C 0.5 0.627606 0.5 0.626937 0.5 0.626268C 0.5 0.625599 0.5 0.62493 0.5 0.624261C 0.5 0.623592 0.5 0.622923 0.5 0.622254C 0.5 0.621584 0.5 0.620915 0.5 0.620246C 0.5 0.619577 0.5 0.618908 0.5 0.618239C 0.5 0.61757 0.5 0.616901 0.5 0.616232C 0.5 0.615563 0.5 0.614894 0.5 0.614224C 0.5 0.613555 0.5 0.612886 0.5 0.612217C 0.5 0.611548 0.5 0.610879 0.5 0.61021C 0.5 0.609541 0.5 0.608872 0.5 0.608203C 0.5 0.607534 0.5 0.606864 0.5 0.606195C 0.5 0.605526 0.5 0.604857 0.5 0.604188C 0.5 0.603519 0.5 0.60285 0.5 0.602181C 0.5 0.601512 0.5 0.600843 0.5 0.600174C 0.5 0.599504 0.5 0.598835 0.5 0.598166C 0.5 0.597497 0.5 0.596828 0.5 0.596159C 0.5 0.59549 0.5 0.594821 0.5 0.594152C 0.5 0.593483 0.5 0.592814 0.5 0.592145C 0.5 0.591475 0.5 0.590806 0.5 0.590137C 0.5 0.589468 0.5 0.588799 0.5 0.58813C 0.5 0.587461 0.5 0.586792 0.5 0.586123C 0.5 0.585454 0.5 0.584785 0.5 0.584115C 0.5 0.583446 0.5 0.582777 0.5 0.582108C 0.5 0.581439 0.5 0.58077 0.5 0.580101C 0.5 0.579432 0.5 0.578763 0.5 0.578094C 0.5 0.577425 0.5 0.576755 0.5 0.576086C 0.5 0.575417 0.5 0.574748 0.5 0.574079C 0.5 0.57341 0.5 0.572741 0.5 0.572072C 0.5 0.571403 0.5 0.570734 0.5 0.570065C 0.5 0.569395 0.5 0.568726 0.5 0.568057C 0.5 0.567388 0.5 0.566719 0.5 0.56605C 0.5 0.565381 0.5 0.564712 0.5 0.564043C 0.5 0.563374 0.5 0.562705 0.5 0.562035C 0.5 0.561366 0.5 0.560697 0.5 0.560028C 0.5 0.559359 0.5 0.55869 0.5 0.558021C 0.5 0.557352 0.5 0.556683 0.5 0.556014C 0.5 0.555345 0.5 0.554675 0.5 0.554006C 0.5 0.553337 0.5 0.552668 0.5 0.551999C 0.5 0.55133 0.5 0.550661 0.5 0.549992C 0.5 0.549323 0.5 0.548654 0.5 0.547985C 0.5 0.547315 0.5 0.546646 0.5 0.545977C 0.5 0.545308 0.5 0.544639 0.5 0.54397C 0.5 0.543301 0.5 0.542632 0.5 0.541963C 0.5 0.541294 0.5 0.540625 0.5 0.539956C 0.5 0.539286 0.5 0.538617 0.5 0.537948C 0.5 0.537279 0.5 0.53661 0.5 0.535941C 0.5 0.535272 0.5 0.534603 0.5 0.533934C 0.5 0.533265 0.5 0.532596 0.5 0.531926C 0.5 0.531257 0.5 0.530588 0.5 0.529919C 0.5 0.52925 0.5 0.528581 0.5 0.527912C 0.5 0.527243 0.5 0.526574 0.5 0.525905C 0.5 0.525236 0.5 0.524566 0.5 0.523897C 0.5 0.523228 0.5 0.522559 0.5 0.52189C 0.5 0.521221 0.5 0.520552 0.5 0.519883C 0.5 0.519214 0.5 0.518545 0.5 0.517876C 0.5 0.517206 0.5 0.516537 0.5 0.515868C 0.5 0.515199 0.5 0.51453 0.5 0.513861C 0.5 0.513192 0.5 0.512523 0.5 0.511854C 0.5 0.511185 0.5 0.510516 0.5 0.509846C 0.5 0.509177 0.5 0.508508 0.5 0.507839C 0.5 0.50717 0.5 0.506501 0.5 0.505832C 0.5 0.505163 0.5 0.504494 0.5 0.503825C 0.5 0.503156 0.5 0.502486 0.5 0.501817C 0.5 0.501148 0.5 0.500479 0.5 0.49981C 0.5 0.499141 0.5 0.498472 0.5 0.497803C 0.5 0.497134 0.5 0.496465 0.5 0.495796C 0.5 0.495126 0.5 0.494457 0.5 0.493788C 0.5 0.493119 0.5 0.49245 0.5 0.491781C 0.5 0.491112 0.5 0.490443 0.5 0.489774C 0.5 0.489105 0.5 0.488436 0.5 0.487766C 0.5 0.487097 0.5 0.486428 0.5 0.485759C 0.5 0.48509 0.5 0.484421 0.5 0.483752C 0.5 0.483083 0.5 0.482414 0.5 0.481745C 0.5 0.481076 0.5 0.480407 0.5 0.479737C 0.5 0.479068 0.5 0.478399 0.5 0.47773C 0.5 0.477061 0.5 0.476392 0.5 0.475723C 0.5 0.475054 0.5 0.474385 0.5 0.473716C 0.5 0.473047 0.5 0.472377 0.5 0.471708C 0.5 0.471039 0.5 0.47037 0.5 0.469701C 0.5 0.469032 0.5 0.468363 0.5 0.467694C 0.5 0.467025 0.5 0.466356 0.5 0.465687C 0.5 0.465017 0.5 0.464348 0.5 0.463679C 0.5 0.46301 0.5 0.462341 0.5 0.461672C 0.5 0.461003 0.5 0.460334 0.5 0.459665C 0.5 0.458996 0.5 0.458327 0.5 0.457657C 0.5 0.456988 0.5 0.456319 0.5 0.45565C 0.5 0.454981 0.5 0.454312 0.5 0.453643C 0.5 0.452974 0.5 0.452305 0.5 0.451636C 0.5 0.450967 0.5 0.450297 0.5 0.449628C 0.5 0.448959 0.5 0.44829 0.5 0.447621C 0.5 0.446952 0.5 0.446283 0.5 0.445614C 0.5 0.444945 0.5 0.444276 0.5 0.443607C 0.5 0.442937 0.5 0.442268 0.5 0.441599C 0.5 0.44093 0.5 0.440261 0.5 0.439592C 0.5 0.438923 0.5 0.438254 0.5 0.437585C 0.5 0.436916 0.5 0.436247 0.5 0.435577C 0.5 0.434908 0.5 0.434239 0.5 0.43357C 0.5 0.432901 0.5 0.432232 0.5 0.431563C 0.5 0.430894 0.5 0.430225 0.5 0.429556C 0.5 0.428887 0.5 0.428218 0.5 0.427548C 0.5 0.426879 0.5 0.42621 0.5 0.425541C 0.5 0.424872 0.5 0.424203 0.5 0.423534C 0.5 0.422865 0.5 0.422196 0.5 0.421527C 0.5 0.420858 0.5 0.420188 0.5 0.419519C 0.5 0.41885 0.5 0.418181 0.5 0.417512C 0.5 0.416843 0.5 0.416174 0.5 0.415505C 0.5 0.414836 0.5 0.414167 0.5 0.413498C 0.5 0.412828 0.5 0.412159 0.5 0.41149C 0.5 0.410821 0.5 0.410152 0.5 0.409483C 0.5 0.408814 0.5 0.408145 0.5 0.407476C 0.5 0.406807 0.5 0.406138 0.5 0.405468C 0.5 0.404799 0.5 0.40413 0.5 0.403461C 0.5 0.402792 0.5 0.402123 0.5 0.401454C 0.5 0.400785 0.5 0.400116 0.5 0.399447C 0.5 0.398778 0.5 0.398108 0.5 0.397439C 0.5 0.39677 0.5 0.396101 0.5 0.395432C 0.5 0.394763 0.5 0.394094 0.5 0.393425C 0.5 0.392756 0.5 0.392087 0.5 0.391418C 0.5 0.390748 0.5 0.390079 0.5 0.38941C 0.5 0.388741 0.5 0.388072 0.5 0.387403C 0.5 0.386734 0.5 0.386065 0.5 0.385396C 0.5 0.384727 0.5 0.384058 0.5 0.383388C 0.5 0.382719 0.5 0.38205 0.5 0.381381C 0.5 0.380712 0.5 0.380043 0.5 0.379374C 0.5 0.378705 0.5 0.378036 0.5 0.377367C 0.5 0.376698 0.5 0.376028 0.5 0.375359C 0.5 0.37469 0.5 0.374021 0.5 0.373352C 0.5 0.372683 0.5 0.372014 0.5 0.371345C 0.5 0.370676 0.5 0.370007 0.5 0.369338C 0.5 0.368669 0.5 0.367999 0.5 0.36733C 0.5 0.366661 0.5 0.365992 0.5 0.365323C 0.5 0.364654 0.5 0.363985 0.5 0.363316C 0.5 0.362647 0.5 0.361978 0.5 0.361309C 0.5 0.360639 0.5 0.35997 0.5 0.359301C 0.5 0.358632 0.5 0.357963 0.5 0.357294C 0.5 0.356625 0.5 0.355956 0.5 0.355287C 0.5 0.354618 0.5 0.353949 0.5 0.353279C 0.5 0.35261 0.5 0.351941 0.5 0.351272C 0.5 0.350603 0.5 0.349934 0.5 0.349265C 0.5 0.348596 0.5 0.347927 0.5 0.347258C 0.5 0.346589 0.5 0.345919 0.5 0.34525C 0.5 0.344581 0.5 0.343912 0.5 0.343243C 0.5 0.342574 0.5 0.341905 0.5 0.341236C 0.5 0.340567 0.5 0.339898 0.5 0.339229C 0.5 0.338559 0.5 0.33789 0.5 0.337221C 0.5 0.336552 0.5 0.335883 0.5 0.335214C 0.5 0.334545 0.5 0.333876 0.5 0.333207C 0.5 0.332538 0.5 0.331869 0.5 0.331199C 0.5 0.33053 0.5 0.329861 0.5 0.329192C 0.5 0.328523 0.5 0.327854 0.5 0.327185C 0.5 0.326516 0.5 0.325847 0.5 0.325178C 0.5 0.324509 0.5 0.323839 0.5 0.32317C 0.5 0.322501 0.5 0.321832 0.5 0.321163C 0.5 0.320494 0.5 0.319825 0.5 0.319156C 0.5 0.318487 0.5 0.317818 0.5 0.317149C 0.5 0.31648 0.5 0.31581 0.5 0.315141C 0.5 0.314472 0.5 0.313803 0.5 0.313134C 0.5 0.312465 0.5 0.311796 0.5 0.311127C 0.5 0.310458 0.5 0.309789 0.5 0.30912C 0.5 0.30845 0.5 0.307781 0.5 0.307112C 0.5 0.306443 0.5 0.305774 0.5 0.305105C 0.5 0.304436 0.5 0.303767 0.5 0.303098C 0.5 0.302429 0.5 0.30176 0.5 0.30109C 0.5 0.300421 0.5 0.299752 0.5 0.299083C 0.5 0.298414 0.5 0.297745 0.5 0.297076C 0.5 0.296407 0.5 0.295738 0.5 0.295069C 0.5 0.2944 0.5 0.29373 0.5 0.293061C 0.5 0.292392 0.5 0.291723 0.5 0.291054C 0.5 0.290385 0.5 0.289716 0.5 0.289047C 0.5 0.288378 0.5 0.287709 0.5 0.28704C 0.5 0.28637 0.5 0.285701 0.5 0.285032C 0.5 0.284363 0.5 0.283694 0.5 0.283025C 0.5 0.282356 0.5 0.281687 0.5 0.281018C 0.5 0.280349 0.5 0.27968 0.5 0.27901C 0.5 0.278341 0.5 0.277672 0.5 0.277003C 0.5 0.276334 0.5 0.275665 0.5 0.274996C 0.5 0.274327 0.5 0.273658 0.5 0.272989C 0.5 0.27232 0.5 0.27165 0.5 0.270981C 0.5 0.270312 0.5 0.269643 0.5 0.268974C 0.5 0.268305 0.5 0.267636 0.5 0.266967C 0.5 0.266298 0.5 0.265629 0.5 0.26496C 0.5 0.26429 0.5 0.263621 0.5 0.262952C 0.5 0.262283 0.5 0.261614 0.5 0.260945C 0.5 0.260276 0.5 0.259607 0.5 0.258938C 0.5 0.258269 0.5 0.2576 0.5 0.256931C 0.5 0.256261 0.5 0.255592 0.5 0.254923C 0.5 0.254254 0.5 0.253585 0.5 0.252916C 0.5 0.252247 0.5 0.251578 0.5 0.250909C 0.5 0.25024 0.5 0.249571 0.5 0.248901C 0.5 0.248232 0.5 0.247563 0.5 0.246894C 0.5 0.246225 0.5 0.245556 0.5 0.244887C 0.5 0.244218 0.5 0.243549 0.5 0.24288C 0.5 0.242211 0.5 0.241541 0.5 0.240872C 0.5 0.240203 0.5 0.239534 0.5 0.238865C 0.5 0.238196 0.5 0.237527 0.5 0.236858C 0.5 0.236189 0.5 0.23552 0.5 0.234851C 0.5 0.234181 0.5 0.233512 0.5 0.232843C 0.5 0.232174 0.5 0.231505 0.5 0.230836C 0.5 0.230167 0.5 0.229498 0.5 0.228829C 0.5 0.22816 0.5 0.227491 0.5 0.226821C 0.5 0.226152 0.5 0.225483 0.5 0.224814C 0.5 0.224145 0.5 0.223476 0.5 0.222807C 0.5 0.222138 0.5 0.221469 0.5 0.2208C 0.5 0.220131 0.5 0.219461 0.5 0.218792C 0.5 0.218123 0.5 0.217454 0.5 0.216785C 0.5 0.216116 0.5 0.215447 0.5 0.214778C 0.5 0.214109 0.5 0.21344 0.5 0.212771C 0.5 0.212101 0.5 0.211432 0.5 0.210763C 0.5 0.210094 0.5 0.209425 0.5 0.208756C 0.5 0.208087 0.5 0.207418 0.5 0.206749C 0.5 0.20608 0.5 0.205411 0.5 0.204742C 0.5 0.204072 0.5 0.203403 0.5 0.202734C 0.5 0.202065 0.5 0.201396 0.5 0.200727C 0.5 0.200058 0.5 0.199389 0.5 0.19872C 0.5 0.198051 0.5 0.197382 0.5 0.196712C 0.5 0.196043 0.5 0.195374 0.5 0.194705C 0.5 0.194036 0.5 0.193367 0.5 0.192698C 0.5 0.192029 0.5 0.19136 0.5 0.190691C 0.5 0.190022 0.5 0.189352 0.5 0.188683C 0.5 0.188014 0.5 0.187345 0.5 0.186676C 0.5 0.186007 0.5 0.185338 0.5 0.184669C 0.5 0.184 0.5 0.183331 0.5 0.182662C 0.5 0.181992 0.5 0.181323 0.5 0.180654C 0.5 0.179985 0.5 0.179316 0.5 0.178647C 0.5 0.177978 0.5 0.177309 0.5 0.17664C 0.5 0.175971 0.5 0.175302 0.5 0.174632C 0.5 0.173963 0.5 0.173294 0.5 0.172625C 0.5 0.171956 0.5 0.171287 0.5 0.170618C 0.5 0.169949 0.5 0.16928 0.5 0.168611C 0.5 0.167942 0.5 0.167272 0.5 0.166603C 0.5 0.165934 0.5 0.165265 0.5 0.164596C 0.5 0.163927 0.5 0.163258 0.5 0.162589C 0.5 0.16192 0.5 0.161251 0.5 0.160582C 0.5 0.159912 0.5 0.159243 0.5 0.158574C 0.5 0.157905 0.5 0.157236 0.5 0.156567C 0.5 0.155898 0.5 0.155229 0.5 0.15456C 0.5 0.153891 0.5 0.153222 0.5 0.152552C 0.5 0.151883 0.5 0.151214 0.5 0.150545C 0.5 0.149876 0.5 0.149207 0.5 0.148538C 0.5 0.147869 0.5 0.1472 0.5 0.146531C 0.5 0.145862 0.5 0.145193 0.5 0.144523C 0.5 0.143854 0.5 0.143185 0.5 0.142516C 0.5 0.141847 0.5 0.141178 0.5 0.140509C 0.5 0.13984 0.5 0.139171 0.5 0.138502C 0.5 0.137833 0.5 0.137163 0.5 0.136494C 0.5 0.135825 0.5 0.135156 0.5 0.134487C 0.5 0.133818 0.5 0.133149 0.5 0.13248C 0.5 0.131811 0.5 0.131142 0.5 0.130473C 0.5 0.129803 0.5 0.129134 0.5 0.128465C 0.5 0.127796 0.5 0.127127 0.5 0.126458C 0.5 0.125789 0.5 0.12512 0.5 0.124451C 0.5 0.123782 0.5 0.123113 0.5 0.122443C 0.5 0.121774 0.5 0.121105 0.5 0.120436C 0.5 0.119767 0.5 0.119098 0.5 0.118429C 0.5 0.11776 0.5 0.117091 0.5 0.116422C 0.5 0.115753 0.5 0.115083 0.5 0.114414C 0.5 0.113745 0.5 0.113076 0.5 0.112407C 0.5 0.111738 0.5 0.111069 0.5 0.1104C 0.5 0.109731 0.5 0.109062 0.5 0.108393C 0.5 0.107723 0.5 0.107054 0.5 0.106385C 0.5 0.105716 0.5 0.105047 0.5 0.104378C 0.5 0.103709 0.5 0.10304 0.5 0.102371C 0.5 0.101702 0.5 0.101033 0.5 0.100363C 0.5 0.0996944 0.5 0.0990253 0.5 0.0983562C 0.5 0.0976871 0.5 0.097018 0.5 0.0963489C 0.5 0.0956799 0.5 0.0950108 0.5 0.0943417C 0.5 0.0936726 0.5 0.0930035 0.5 0.0923344C 0.5 0.0916653 0.5 0.0909962 0.5 0.0903271C 0.5 0.089658 0.5 0.088989 0.5 0.0883199C 0.5 0.0876508 0.5 0.0869817 0.5 0.0863126C 0.5 0.0856435 0.5 0.0849744 0.5 0.0843053C 0.5 0.0836362 0.5 0.0829671 0.5 0.0822981C 0.5 0.081629 0.5 0.0809599 0.5 0.0802908C 0.5 0.0796217 0.5 0.0789526 0.5 0.0782835C 0.5 0.0776144 0.5 0.0769453 0.5 0.0762762C 0.5 0.0756072 0.5 0.0749381 0.5 0.074269C 0.5 0.0735999 0.5 0.0729308 0.5 0.0722617C 0.5 0.0715926 0.5 0.0709235 0.5 0.0702544C 0.5 0.0695853 0.5 0.0689163 0.5 0.0682472C 0.5 0.0675781 0.5 0.066909 0.5 0.0662399C 0.5 0.0655708 0.5 0.0649017 0.5 0.0642326C 0.5 0.0635635 0.5 0.0628944 0.5 0.0622254C 0.5 0.0615563 0.5 0.0608872 0.5 0.0602181C 0.5 0.059549 0.5 0.0588799 0.5 0.0582108C 0.5 0.0575417 0.5 0.0568726 0.5 0.0562036C 0.5 0.0555345 0.5 0.0548654 0.5 0.0541963C 0.5 0.0535272 0.5 0.0528581 0.5 0.052189C 0.5 0.0515199 0.5 0.0508508 0.5 0.0501817C 0.5 0.0495127 0.5 0.0488436 0.5 0.0481745C 0.5 0.0475054 0.5 0.0468363 0.5 0.0461672C 0.5 0.0454981 0.5 0.044829 0.5 0.0441599C 0.5 0.0434908 0.5 0.0428218 0.5 0.0421527C 0.5 0.0414836 0.5 0.0408145 0.5 0.0401454C 0.5 0.0394763 0.5 0.0388072 0.5 0.0381381C 0.5 0.037469 0.5 0.0367999 0.5 0.0361309C 0.5 0.0354618 0.5 0.0347927 0.5 0.0341236C 0.5 0.0334545 0.5 0.0327854 0.5 0.0321163C 0.5 0.0314472 0.5 0.0307781 0.5 0.030109C 0.5 0.02944 0.5 0.0287709 0.5 0.0281018C 0.5 0.0274327 0.5 0.0267636 0.5 0.0260945C 0.5 0.0254254 0.5 0.0247563 0.5 0.0240872C 0.5 0.0234181 0.5 0.0227491 0.5 0.02208C 0.5 0.0214109 0.5 0.0207418 0.5 0.0200727C 0.5 0.0194036 0.5 0.0187345 0.5 0.0180654C 0.5 0.0173963 0.5 0.0167272 0.5 0.0160582C 0.5 0.0153891 0.5 0.01472 0.5 0.0140509C 0.5 0.0133818 0.5 0.0127127 0.5 0.0120436C 0.5 0.0113745 0.5 0.0107054 0.5 0.0100363C 0.5 0.00936726 0.5 0.00869817 0.5 0.00802908C 0.5 0.00735999 0.5 0.0066909 0.5 0.00602181C 0.5 0.00535272 0.5 0.00468363 0.5 0.00401454C 0.5 0.00334545 0.5 0.00267636 0.5 0.00200727C 0.5 0.00133818 0.5 0.00066909 0.5 0L -0.5 0Z"/>
<path id="path7_stroke" d="M 0.833743 0.43613C 0.885413 0.164865 0.707395 -0.0969257 0.43613 -0.148595C 0.164865 -0.200265 -0.0969257 -0.0222473 -0.148595 0.249018L 0.833743 0.43613ZM 0.475797 2.39802L 0.0149795 2.20399L 0.0149795 2.20399L 0.475797 2.39802ZM 0.685148 0.865951L 0.210806 0.707837L 0.685148 0.865951ZM 1.35644 0C 1.35644 -0.276142 1.13258 -0.5 0.856435 -0.5C 0.580293 -0.5 0.356435 -0.276142 0.356435 0L 1.35644 0ZM -0.148595 0.249018C -0.261536 0.841958 -0.5 1.74174 -0.5 2.47415L 0.5 2.47415C 0.5 1.86759 0.697149 1.15325 0.833743 0.43613L -0.148595 0.249018ZM -0.5 2.47415C -0.5 2.62166 -0.478941 2.87013 -0.295474 3.05417C -0.0553129 3.29509 0.24486 3.2387 0.395223 3.17338C 0.540885 3.11011 0.654208 3.00554 0.730462 2.91847C 0.811436 2.82602 0.885576 2.71326 0.936615 2.59205L 0.0149795 2.20399C 0.0101639 2.21543 -0.00309712 2.23825 -0.021808 2.25962C -0.0452389 2.28637 -0.0438839 2.27386 -0.00320748 2.25619C 0.019617 2.24627 0.0771877 2.22531 0.158633 2.23144C 0.251184 2.23841 0.343435 2.27865 0.412743 2.34818C 0.474232 2.40986 0.493503 2.47001 0.498262 2.48747C 0.503284 2.50589 0.5 2.50517 0.5 2.47415L -0.5 2.47415ZM 0.936615 2.59205C 1.07224 2.26995 1.08159 1.91402 1.08968 1.66369C 1.09901 1.37508 1.10615 1.18409 1.15949 1.02406L 0.210806 0.707837C 0.101874 1.03464 0.0980988 1.387 0.0901995 1.63138C 0.0810631 1.91404 0.0668747 2.08074 0.0149796 2.20399L 0.936615 2.59205ZM 1.15949 1.02406C 1.26977 0.693215 1.35644 0.459375 1.35644 0L 0.356435 0C 0.356435 0.284577 0.318353 0.385197 0.210806 0.707837L 1.15949 1.02406Z"/>
<path id="path8_stroke" d="M 0.563053 0.0957552C 0.615937 -0.175276 0.439094 -0.437861 0.168063 -0.490745C -0.102968 -0.543629 -0.365553 -0.366786 -0.418437 -0.0957552L 0.563053 0.0957552ZM 0.500526 1.9698L 0.937604 2.21262L 0.500526 1.9698ZM 1.25746 0C 1.25746 -0.276142 1.0336 -0.5 0.757456 -0.5C 0.481314 -0.5 0.257456 -0.276142 0.257456 0L 1.25746 0ZM -0.418437 -0.0957552C -0.437203 0.000420344 -0.461306 0.265928 -0.477983 0.554017C -0.495485 0.856347 -0.507587 1.23239 -0.494453 1.5665C -0.487918 1.73274 -0.47474 1.90026 -0.449703 2.04825C -0.428393 2.17422 -0.386813 2.36701 -0.276957 2.52065C -0.215519 2.60658 -0.0996704 2.72586 0.0870693 2.76725C 0.279739 2.80995 0.44236 2.7468 0.545656 2.68126C 0.722177 2.56926 0.846711 2.37623 0.937604 2.21262L 0.0634469 1.72698C -0.0219952 1.88077 -0.0444896 1.8714 0.00991091 1.83688C 0.0521467 1.81008 0.159936 1.75913 0.30345 1.79094C 0.441035 1.82143 0.513406 1.90673 0.536495 1.93902C 0.569652 1.98539 0.555046 1.99233 0.536286 1.88144C 0.521253 1.79258 0.510476 1.67226 0.504775 1.52723C 0.493438 1.23881 0.50374 0.898659 0.520346 0.611809C 0.52858 0.469558 0.538176 0.343621 0.546896 0.247738C 0.556592 0.141127 0.563209 0.0949559 0.563053 0.0957552L -0.418437 -0.0957552ZM 0.937604 2.21262C 1.47704 1.24164 1.25746 0.615499 1.25746 0L 0.257456 0C 0.257456 0.897085 0.435891 1.05658 0.0634469 1.72698L 0.937604 2.21262Z"/>
<path id="path9_stroke" d="M 0.422254 -0.267771C 0.274368 -0.500976 -0.0345664 -0.57014 -0.267771 -0.422254C -0.500976 -0.274368 -0.57014 0.0345664 -0.422254 0.267771L 0.422254 -0.267771ZM 4.92475 1.42772C 5.14566 1.26204 5.19043 0.948636 5.02475 0.727722C 4.85906 0.506808 4.54566 0.462037 4.32475 0.627722L 4.92475 1.42772ZM -0.422254 0.267771C 0.104982 1.09918 1.01263 1.69727 1.98085 1.9405C 2.95273 2.18465 4.04827 2.08508 4.92475 1.42772L 4.32475 0.627722C 3.74306 1.06399 2.97571 1.15935 2.22449 0.970635C 1.46962 0.780999 0.793978 0.318409 0.422254 -0.267771L -0.422254 0.267771Z"/>
<path id="path10_fill" d="M 19.0839 12.6049C 16.8058 11.8761 15.7646 13.8469 15.1841 15.7309C 14.7871 15.5312 14.5427 15.3984 14.1904 15.0049C 13.8474 14.6216 13.1083 14.5838 12.6668 14.2879C 12.0683 13.8867 11.8335 12.8524 11.3909 12.3333C 10.9303 11.7929 10.3836 11.2812 9.89736 10.7635C 9.67062 10.5221 9.71167 10.0178 9.59715 9.70692C 9.42602 9.24231 9.20211 9.14009 8.80159 8.87676C 7.96372 8.32589 7.25357 7.92689 6.89523 6.99003C 6.80107 6.74385 6.47526 6.4266 6.30981 6.2127C 6.03878 5.8623 5.73755 5.4316 5.37164 5.18631C 5.04983 4.97058 5.24611 4.61623 5.16149 4.31842C 5.01737 3.81121 5.70938 3.5384 5.70938 3.02035C 5.70938 2.40548 5.38039 2.49296 4.82375 2.47697C 4.31089 2.46223 5.98292 0.466253 4.52354 1.39021C 4.13826 1.63414 3.14879 1.52708 2.86486 1.19399C 2.63743 0.927188 2.22406 0.819221 2.00925 0.507221C 1.76972 0.159324 1.54982 -0.102539 1.05607 0.0393119C 0.885596 0.0882891 1.15118 0.978739 1.10861 1.17135C 1.08873 1.26131 0.434394 1.39648 0.305537 1.52606C -0.26541 2.10017 0.62891 2.3619 1.02605 2.47697C 1.83367 2.71096 1.12259 2.68381 0.845921 3.05053C 0.716079 3.22264 -0.361164 4.18552 0.125408 4.34861C 0.573867 4.49892 1.23223 4.37879 1.70153 4.37879C 1.95077 4.37879 1.10787 4.38518 0.988523 4.6052C 0.896371 4.77508 0.501483 6.00893 0.845921 6.00893C 1.12162 6.00893 1.55112 5.71897 1.79159 5.57121C 1.98922 5.44977 2.1079 4.61897 2.33198 5.12594C 2.46488 5.42663 2.90732 5.77239 3.14256 6.00893C 3.49472 6.36305 3.64866 6.9853 3.88559 7.4353C 4.41227 8.43566 5.32722 9.21288 6.17472 9.97861C 6.92239 10.6542 7.94273 11.5467 8.47135 12.4087C 9.02304 13.3083 9.47785 14.3566 10.2276 15.1105C 10.9928 15.8799 10.8791 16.3462 10.5728 17.3897C 10.4409 17.8392 10.1997 18.1811 9.96491 18.5746C 9.52137 19.3179 8.4144 19.2418 7.66828 19.4726C 7.30978 19.5836 6.90585 20.5975 6.80516 20.9518C 6.65246 21.4892 6.94318 22.1414 7.03032 22.6574C 7.1903 23.6048 7.92549 23.664 8.86163 23.9857C 9.58656 24.2348 10.3393 24.4086 11.0682 24.6498C 11.3454 24.7416 12.8386 25.0296 12.8695 25.4649C 12.9144 26.0978 12.6906 26.79 12.5317 27.3969C 12.12 28.9703 12.0712 31.2468 12.4792 32.7854C 12.7423 33.7775 13.4766 35.3092 14.4456 35.7589C 15.2633 36.1384 16.0896 36.5333 16.9224 36.8758C 18.0816 37.3527 19.7421 36.8645 20.9602 36.8457C 22.7459 36.818 24.4191 35.8299 25.9438 34.9891C 27.4607 34.1527 28.3827 33.422 28.7958 31.7439C 29.2669 29.8305 29.9553 27.6013 29.5388 25.6007C 28.8682 22.3789 25.9936 21.618 23.3619 20.4839C 23.1425 20.3894 21.8641 20.1022 21.7933 19.7821C 21.6816 19.2765 21.7858 18.6246 21.7858 18.1142C 21.7858 16.6835 21.4268 15.9211 20.8702 14.6275C 20.4532 13.6585 20.1402 12.9429 19.0839 12.6049Z"/>
<path id="path11_fill" d="M 6.3097 3.17233C 6.3097 4.92436 4.89723 6.34466 3.15485 6.34466C 1.41247 6.34466 0 4.92436 0 3.17233C 0 1.4203 1.41247 0 3.15485 0C 4.89723 0 6.3097 1.4203 6.3097 3.17233Z"/>
<path id="path12_stroke_2x" d="M 5.3097 3.17233C 5.3097 4.37729 4.33974 5.34466 3.15485 5.34466L 3.15485 7.34466C 5.45471 7.34466 7.3097 5.47142 7.3097 3.17233L 5.3097 3.17233ZM 3.15485 5.34466C 1.96996 5.34466 1 4.37729 1 3.17233L -1 3.17233C -1 5.47142 0.854988 7.34466 3.15485 7.34466L 3.15485 5.34466ZM 1 3.17233C 1 1.96737 1.96996 1 3.15485 1L 3.15485 -1C 0.854988 -1 -1 0.873231 -1 3.17233L 1 3.17233ZM 3.15485 1C 4.33974 1 5.3097 1.96737 5.3097 3.17233L 7.3097 3.17233C 7.3097 0.873231 5.45471 -1 3.15485 -1L 3.15485 1Z"/>
<path id="path13_stroke" d="M 12.4901 0C 12.4901 -0.276142 12.2662 -0.5 11.9901 -0.5C 11.7139 -0.5 11.4901 -0.276142 11.4901 0L 12.4901 0ZM 1.79851 7.03228L 1.69005 7.52038L 1.79851 7.03228ZM 0.474342 5.32307C 0.387018 5.0611 0.103858 4.91952 -0.158114 5.00684C -0.420086 5.09417 -0.561666 5.37733 -0.474342 5.6393L 0.474342 5.32307ZM 11.4901 0C 11.4901 0.962422 11.4036 1.75513 11.1585 2.47058C 10.9158 3.17923 10.5083 3.83879 9.82851 4.51861L 10.5356 5.22572C 11.3104 4.45089 11.8069 3.6637 12.1046 2.79459C 12.3999 1.93228 12.4901 1.01624 12.4901 0L 11.4901 0ZM 9.82851 4.51861C 9.33512 5.012 8.54133 5.56318 7.67727 5.99077C 6.80574 6.42206 5.93009 6.69405 5.27183 6.69405L 5.27183 7.69405C 6.15459 7.69405 7.193 7.34616 8.1208 6.88703C 9.05607 6.42421 9.94689 5.81444 10.5356 5.22572L 9.82851 4.51861ZM 5.27183 6.69405C 4.05654 6.69405 2.94971 6.77591 1.90698 6.54419L 1.69005 7.52038C 2.87407 7.78349 4.16103 7.69405 5.27183 7.69405L 5.27183 6.69405ZM 1.90698 6.54419C 1.75196 6.50974 1.42616 6.32989 1.08542 6.04215C 0.925195 5.90686 0.780404 5.76324 0.668713 5.62805C 0.551846 5.4866 0.493801 5.38145 0.474342 5.32307L -0.474342 5.6393C -0.39888 5.86568 -0.253856 6.08143 -0.102211 6.26498C 0.0546085 6.45479 0.24377 6.64028 0.440239 6.80619C 0.812883 7.12086 1.29142 7.43179 1.69005 7.52038L 1.90698 6.54419Z"/>
<path id="path14_stroke" d="M 10.0526 4.77292C 10.3236 4.72004 10.5005 4.45745 10.4476 4.18642C 10.3947 3.91539 10.1321 3.73855 9.86108 3.79143L 10.0526 4.77292ZM 4.45662 3.9396L 4.54607 3.44767L 4.45662 3.9396ZM 0.916692 2.74059L 0.878344 3.23912L 0.916692 2.74059ZM 0.107837 1.3703L 0.420185 1.76073L 0.107837 1.3703ZM 1.20734 0C 1.20734 -0.276142 0.983484 -0.5 0.707342 -0.5C 0.431199 -0.5 0.207342 -0.276142 0.207342 0L 1.20734 0ZM 9.86108 3.79143C 8.07654 4.13963 6.43397 3.79092 4.54607 3.44767L 4.36718 4.43154C 6.19856 4.76451 8.04511 5.16462 10.0526 4.77292L 9.86108 3.79143ZM 4.54607 3.44767C 4.02672 3.35324 3.5054 3.10884 2.89467 2.83704C 2.31464 2.57891 1.65159 2.29565 0.955041 2.24206L 0.878344 3.23912C 1.37937 3.27766 1.89378 3.48617 2.48808 3.75065C 3.05166 4.00146 3.70152 4.31051 4.36718 4.43154L 4.54607 3.44767ZM 0.955041 2.24206C 1.01092 2.24636 1.0305 2.26348 1.00331 2.24861C 0.98274 2.23737 0.948695 2.21486 0.904223 2.17764C 0.815035 2.103 0.715937 1.9961 0.635213 1.88101C 0.550432 1.76013 0.511219 1.66634 0.501479 1.61869C 0.493029 1.57736 0.520739 1.68029 0.420185 1.76073L -0.20451 0.979862C -0.509886 1.22416 -0.527742 1.5769 -0.478262 1.81896C -0.430073 2.05471 -0.307861 2.27791 -0.183485 2.45524C -0.0550514 2.63835 0.102742 2.81088 0.262417 2.94451C 0.342377 3.01143 0.430757 3.07528 0.523629 3.12605C 0.609891 3.17321 0.733945 3.22801 0.878344 3.23912L 0.955041 2.24206ZM 0.420185 1.76073C 0.677993 1.55448 0.868046 1.22654 0.990103 0.938015C 1.1148 0.643258 1.20734 0.297166 1.20734 0L 0.207342 0C 0.207342 0.117988 0.162833 0.326886 0.0691213 0.54841C -0.0272252 0.776162 -0.136925 0.925793 -0.204511 0.979862L 0.420185 1.76073Z"/>
<path id="path15_stroke" d="M 7.81512 0.488372C 8.08484 0.429165 8.25549 0.162517 8.19629 -0.107204C 8.13708 -0.376924 7.87043 -0.547579 7.60071 -0.488372L 7.81512 0.488372ZM 3.86347 3.3401L 3.42324 3.10305L 3.42324 3.10305L 3.86347 3.3401ZM 4.14895 8.39306L 3.73659 8.67583L 4.14895 8.39306ZM 1.71287 9.60159L 1.90983 10.0612L 1.90983 10.0612L 1.71287 9.60159ZM -0.27735 10.3751C -0.507114 10.5282 -0.569201 10.8387 -0.416025 11.0684C -0.262849 11.2982 0.0475858 11.3603 0.27735 11.2071L -0.27735 10.3751ZM 7.60071 -0.488372C 5.52435 -0.0325846 4.33412 1.41141 3.42324 3.10305L 4.30371 3.57715C 5.15909 1.98859 6.15824 0.852077 7.81512 0.488372L 7.60071 -0.488372ZM 3.42324 3.10305C 3.16765 3.57771 3.15741 4.22324 3.17907 4.74036C 3.19054 5.01436 3.21394 5.29027 3.23329 5.53267C 3.25325 5.78262 3.26831 5.99084 3.26831 6.15682L 4.26831 6.15682C 4.26831 5.94422 4.24952 5.69603 4.23012 5.45308C 4.21012 5.20258 4.18868 4.94909 4.17819 4.69853C 4.15591 4.16653 4.19326 3.78227 4.30371 3.57715L 3.42324 3.10305ZM 3.26831 6.15682C 3.26831 6.5008 3.25163 6.94286 3.29478 7.36199C 3.33907 7.79213 3.44961 8.25732 3.73659 8.67583L 4.56132 8.1103C 4.40435 7.88138 4.32457 7.59995 4.28952 7.25957C 4.25334 6.90819 4.26831 6.55584 4.26831 6.15682L 3.26831 6.15682ZM 3.73659 8.67583C 3.80231 8.77168 3.85318 8.84853 3.8917 8.91098C 3.93138 8.9753 3.95085 9.013 3.95925 9.03223C 3.96308 9.04099 3.96137 9.03868 3.95846 9.02757C 3.95567 9.01694 3.94914 8.98842 3.94983 8.94732C 3.95056 8.904 3.95943 8.84578 3.98905 8.7836C 4.0192 8.72028 4.06179 8.67195 4.10471 8.63812C 4.14503 8.60633 4.18093 8.59091 4.19957 8.5841C 4.2183 8.57726 4.22899 8.57573 4.22619 8.57621C 4.21803 8.57761 4.19094 8.58072 4.13032 8.58194C 4.07209 8.58311 4.00122 8.58237 3.90922 8.5811C 3.81979 8.57987 3.71418 8.57821 3.59703 8.57821L 3.59703 9.57821C 3.79155 9.57821 4.01378 9.58449 4.15046 9.58173C 4.22611 9.58021 4.31283 9.57601 4.39596 9.56169C 4.47067 9.54882 4.60315 9.51854 4.72379 9.42344C 4.87373 9.30524 4.94682 9.1351 4.94969 8.96412C 4.95202 8.82519 4.90816 8.70643 4.8757 8.63208C 4.80952 8.48051 4.69227 8.30127 4.56132 8.1103L 3.73659 8.67583ZM 3.59703 8.57821C 2.74237 8.57821 2.15178 8.8695 1.51591 9.14202L 1.90983 10.0612C 2.5929 9.76842 2.98632 9.57821 3.59703 9.57821L 3.59703 8.57821ZM 1.51591 9.14202C 1.09294 9.32329 0.767795 9.55602 0.487065 9.77865C 0.192112 10.0126 -0.0138884 10.1994 -0.27735 10.3751L 0.27735 11.2071C 0.585916 11.0014 0.872094 10.7496 1.10844 10.5622C 1.35901 10.3634 1.60428 10.1921 1.90983 10.0612L 1.51591 9.14202Z"/>
<path id="path16_stroke" d="M 0.267771 -0.422254C 0.0345664 -0.57014 -0.274368 -0.500976 -0.422254 -0.267771C -0.57014 -0.0345664 -0.500976 0.274368 -0.267771 0.422254L 0.267771 -0.422254ZM 7.30792 9.37821C 7.4736 9.59913 7.787 9.6439 8.00792 9.47821C 8.22883 9.31253 8.2736 8.99913 8.10792 8.77821L 7.30792 9.37821ZM -0.267771 0.422254C 1.76945 1.71415 2.19646 3.85234 1.89236 6.28512L 2.88464 6.40915C 3.20897 3.81454 2.78596 1.17464 0.267771 -0.422254L -0.267771 0.422254ZM 1.89236 6.28512C 1.8795 6.38801 1.84573 6.51049 1.79747 6.66851C 1.75507 6.80735 1.69383 6.99586 1.66327 7.16525C 1.63593 7.31683 1.60169 7.60079 1.76583 7.85297C 1.95402 8.14212 2.27124 8.20792 2.52173 8.20792L 2.52173 7.20792C 2.41025 7.20792 2.52039 7.17911 2.60394 7.30748C 2.66343 7.39888 2.62698 7.45588 2.64739 7.34277C 2.66458 7.24746 2.70105 7.13352 2.75386 6.96059C 2.80082 6.80684 2.85976 6.60824 2.88464 6.40915L 1.89236 6.28512ZM 2.52173 8.20792C 3.08545 8.20792 3.61404 8.17132 4.07622 8.14914C 4.54898 8.12645 4.95667 8.11845 5.33257 8.16337C 6.04046 8.24797 6.66515 8.52119 7.30792 9.37821L 8.10792 8.77821C 7.29835 7.69879 6.42555 7.28687 5.45123 7.17043C 4.98602 7.11484 4.50643 7.12734 4.02828 7.15029C 3.53954 7.17374 3.0536 7.20792 2.52173 7.20792L 2.52173 8.20792Z"/>
<path id="path17_stroke" d="M 0 0L 29.7321 0L 29.7321 -0.1L 0 -0.1L 0 0Z"/>
</defs>
</svg>
